<svg className="windowIcons" xmlns="http://www.w3.org/2000/svg" xmlns:xlink="http://www.w3.org/1999/xlink" viewBox="0 0 50 50" shape-rendering="geometricPrecision" text-rendering="geometricPrecision"><g transform="matrix(.783559 0 0 0.74201-.073889 1.25568)"><path d="M51.930615,59.076199L44.650516,33.648102c3.8881-3.479101,6.349499-8.520003,6.349499-14.148102c0-10.4934-8.506595-19-18.999996-19s-19,8.5066-19,19c0,5.610901,2.4467,10.637899,6.314201,14.116001l-7.2449,25.304897c-.1152.400403.030299.829102.3643,1.077202.331999.249001.787099.264599,1.1357.040001l6.6777-4.277302l3.645599,7.044899c.1728.334004.5166.5401.887701.5401.035099,0,.0712-.001998.107399-.005897.411101-.044003.7519-.336903.858401-.735401l6.233099-23.265l6.2747,23.4193c.106399.398499.447201.691399.858402.735402.036097.003898.072196.005798.107398.005798.371097,0,.714798-.206001.887699-.540001l3.6455-7.042999l6.677696,4.276401c.349705.224598.802803.209,1.136803-.040001.333-.2481.478501-.676799.363198-1.077201ZM15.000018,19.5c0-9.3738,7.6261-17,17-17c9.373799,0,16.999996,7.6262,16.999996,17s-7.626197,17-16.999996,17c-9.3739,0-17-7.6261-17-17Zm9.4824,40.0938l-2.963899-5.726601c-.128901-.249-.357401-.433598-.628901-.505798-.2705-.0723-.561499-.028302-.7978.124l-5.3711,3.440399l6.2836-21.949298c2.6348,1.875499,5.759501,3.103897,9.1544,3.430599L24.482418,59.5938Zm19.4258-5.952198c-.236301-.152302-.527401-.195301-.797901-.124001-.271499.0723-.5.256901-.628898.505898L39.51762,59.7491L33.800217,38.409199c3.394401-.319397,6.5214-1.537399,9.158901-3.4053L49.27932,57.081101l-5.371102-3.439499Z" fill="#0061f4"/><path d="M32.000019,31.5c6.6274,0,12-5.372601,12-12s-5.3726-12-12-12-12,5.3726-12,12s5.3725,12,12,12Zm0-22c5.514,0,10,4.486,10,10s-4.486,10-10,10c-5.514101,0-10-4.485901-10-10s4.485899-10,10-10Z" fill="#0061f4"/></g></svg>