<svg className="windowIcons" xmlns="http://www.w3.org/2000/svg" xmlns:xlink="http://www.w3.org/1999/xlink" viewBox="0 0 50 50" shape-rendering="geometricPrecision" text-rendering="geometricPrecision"><g transform="matrix(.059711 0 0 0.058624 1.115591 1.550399)"><circle r="34.91" transform="translate(399.998 217.839)" fill="#0061f4"/><path d="M311.233,441.527c-9.567-5.521-21.799-2.242-27.32,7.324l-1.657,2.871c-5.521,9.566-2.243,21.798,7.323,27.32c3.149,1.817,6.587,2.682,9.979,2.682c6.913,0,13.637-3.589,17.341-10.006l1.657-2.871c5.522-9.566,2.244-21.797-7.323-27.32Z" fill="#0061f4"/><path d="M713.577,651.023L490.832,265.22c7.426-14.179,11.635-30.296,11.635-47.381c0-56.501-45.967-102.468-102.467-102.468-5.107,0-10.129.381-15.038,1.106v-53.049h29.948v22.16c0,11.046,8.954,20,20,20c11.045,0,20-8.954,20-20v-42.159c0-11.045-8.955-20-20-20l-69.948-.001c-5.304,0-10.392,2.107-14.142,5.858-3.751,3.75-5.858,8.838-5.858,14.142v88.015c-28.497,18.218-47.43,50.137-47.43,86.396c0,17.084,4.208,33.202,11.635,47.381L86.423,651.023c-2.652,4.594-3.371,10.053-1.998,15.176l25.602,95.549c2.093,7.814,8.688,13.598,16.708,14.653.875.115,1.748.171,2.615.171c7.076,0,13.713-3.76,17.314-10L272.703,548.268l107.231-.002v29.821c0,11.046,8.954,20,20,20s20-8.954,20-20v-48.544c.026-.425.063-.847.063-1.278s-.037-.852-.063-1.275v-48.545c0-11.046-8.954-20-20-20s-20,8.954-20,20v29.821l-118.778.002c-7.146,0-13.748,3.812-17.32,10L136.166,704.755l-10.961-40.906L336.372,298.098c7.798,6.195,16.515,11.282,25.911,15.015l-47.944,83.041c-5.522,9.566-2.245,21.797,7.32,27.32c3.149,1.818,6.588,2.684,9.981,2.684c6.912,0,13.635-3.588,17.339-10.004L400,327.785L504.2,508.266h-46.027c-11.046,0-20,8.954-20,20s8.954,20,19.999,20l80.67.001c7.145,0,13.748-3.813,17.32-10c3.573-6.188,3.573-13.813,0-20L437.717,313.113c9.396-3.733,18.112-8.819,25.91-15.015L674.794,663.85l-10.962,40.908-66.449-115.095c-5.523-9.565-17.754-12.843-27.32-7.321-9.566,5.523-12.844,17.756-7.321,27.321l90.592,156.909c3.603,6.24,10.239,10.001,17.314,10c.867,0,1.741-.056,2.616-.171c8.02-1.056,14.614-6.839,16.708-14.652L715.576,666.2c1.372-5.124.653-10.583-1.999-15.177ZM400,280.307c-34.445,0-62.468-28.023-62.468-62.468s28.022-62.468,62.468-62.468c34.444,0,62.467,28.023,62.467,62.468s-28.023,62.468-62.467,62.468Z" fill="#0061f4"/></g></svg>