<?xml version="1.0" encoding="iso-8859-1"?>
<!-- Generator: Adobe Illustrator 18.0.0, SVG Export Plug-In . SVG Version: 6.00 Build 0)  -->
<!DOCTYPE svg PUBLIC "-//W3C//DTD SVG 1.1//EN" "http://www.w3.org/Graphics/SVG/1.1/DTD/svg11.dtd">
<svg version="1.1" id="Capa_1" xmlns="http://www.w3.org/2000/svg" xmlns:xlink="http://www.w3.org/1999/xlink" x="0px" y="0px"
	 viewBox="0 0 228.692 228.692" style="enable-background:new 0 0 228.692 228.692;" xml:space="preserve">
<g>
	<path style="fill:#F2EBBF;" d="M209.046,87.652h0.447c0.643,0,0.85-0.298,0.85-0.711c0-0.401-0.207-0.711-0.85-0.711h-0.447
		c-0.723,0-0.918,0.31-0.918,0.711C208.128,87.342,208.323,87.652,209.046,87.652z"/>
	<path style="fill:#F2EBBF;" d="M212.396,92.195h0.746c0.711,0,0.906-0.31,0.906-0.711c0-0.402-0.195-0.7-0.906-0.711h-0.746
		c-0.631,0-0.906,0.264-0.906,0.711C211.49,91.931,211.766,92.195,212.396,92.195z"/>
	<path style="fill:#F2EBBF;" d="M97.55,130.654c-0.442,0-0.783,0.215-0.783,1.01v0.492c0,0.707,0.328,0.934,0.783,0.934
		c0.441,0,0.782-0.227,0.782-0.934v-0.492C98.332,130.869,97.991,130.654,97.55,130.654z"/>
	<path style="fill:#F2EBBF;" d="M208.92,138.458h4.337c0.574,0,0.792-0.252,0.792-0.654c0-0.401-0.218-0.653-0.792-0.653h-4.337
		c-0.574,0-0.792,0.252-0.792,0.653C208.128,138.206,208.346,138.458,208.92,138.458z"/>
	<path style="fill:#F2EBBF;" d="M208.92,96.703h1.445c0.574,0,0.792-0.253,0.792-0.654c0-0.401-0.218-0.654-0.792-0.654h-1.445
		c-0.574,0-0.78,0.253-0.78,0.654C208.14,96.45,208.346,96.703,208.92,96.703z"/>
	<path style="fill:#F2EBBF;" d="M46.744,99.621c0.693,0,1.129-0.376,1.129-1.367v-7.486c0-0.99-0.436-1.367-1.129-1.367
		c-0.693,0-1.129,0.377-1.129,1.367v7.486C45.615,99.245,46.051,99.621,46.744,99.621z"/>
	<path style="fill:#F2EBBF;" d="M81.662,92.352v-1.367c0-0.99-0.337-1.426-1.109-1.426h-1.05v4.258h0.852
		C81.167,93.818,81.662,93.461,81.662,92.352z"/>
	<path style="fill:#F2EBBF;" d="M209.046,92.195h0.447c0.643,0,0.85-0.298,0.85-0.711c0-0.402-0.207-0.711-0.85-0.711h-0.447
		c-0.723,0-0.918,0.31-0.918,0.711C208.128,91.885,208.323,92.195,209.046,92.195z"/>
	<path style="fill:#F2EBBF;" d="M58.262,130.654c-0.442,0-0.72,0.24-0.72,0.871v4.77c0,0.631,0.277,0.871,0.72,0.871
		c0.441,0,0.719-0.24,0.719-0.871v-4.77C58.98,130.894,58.703,130.654,58.262,130.654z"/>
	<path style="fill:#F2EBBF;" d="M102.548,130.654c-0.442,0-0.783,0.215-0.783,1.01v0.492c0,0.707,0.328,0.934,0.783,0.934
		c0.441,0,0.782-0.227,0.782-0.934v-0.492C103.33,130.869,102.989,130.654,102.548,130.654z"/>
	<path style="fill:#F2EBBF;" d="M212.396,87.652h0.746c0.711,0,0.906-0.31,0.906-0.711c0-0.401-0.195-0.7-0.906-0.711h-0.746
		c-0.631,0-0.906,0.264-0.906,0.711C211.49,87.388,211.766,87.652,212.396,87.652z"/>
	<path style="fill:#F2EBBF;" d="M97.55,134.351c-0.492,0-0.783,0.303-0.783,0.997v0.82c0,0.782,0.341,0.997,0.783,0.997
		c0.441,0,0.77-0.215,0.782-0.997v-0.82C98.332,134.654,98.041,134.351,97.55,134.351z"/>
	<path style="fill:#F2EBBF;" d="M172.152,84.452h2v5h-2v5h2v5h-2v5h2v5h-2v5h2v5h-2v5h2v5h-2v5h2v5h-2v5h2v3.447h46.54V80.793
		h-48.54V84.452z M215.104,143.563h-8.032v-3.339h1.148v2.077h2.421v-1.63h1.148v1.63h3.316V143.563z M209,84.967h0.252
		c0.792,0,1.332,0.264,1.618,0.78c0.31-0.551,0.907-0.78,1.676-0.78h0.631c1.285,0,2.02,0.7,2.02,1.974
		c0,1.273-0.734,1.974-2.02,1.974h-0.631c-0.769,0-1.366-0.23-1.676-0.78c-0.286,0.528-0.826,0.78-1.618,0.78H209
		c-1.285,0-2.02-0.7-2.02-1.974C206.98,85.667,207.715,84.967,209,84.967z M209,89.51h0.252c0.792,0,1.332,0.264,1.618,0.78
		c0.31-0.551,0.907-0.78,1.676-0.78h0.631c1.285,0,2.02,0.7,2.02,1.974c0,1.274-0.734,1.974-2.02,1.974h-0.631
		c-0.769,0-1.366-0.229-1.676-0.78c-0.286,0.528-0.826,0.78-1.618,0.78H209c-1.285,0-2.02-0.7-2.02-1.974
		C206.98,90.209,207.715,89.51,209,89.51z M209,94.133h4.107c1.355,0,2.089,0.619,2.089,1.928c0,1.239-0.734,1.882-2.02,1.882
		h-0.206v-1.193h0.286c0.574,0,0.792-0.253,0.792-0.654c0-0.447-0.218-0.7-0.986-0.7h-1.469c0.459,0.218,0.711,0.608,0.711,1.171
		c0,0.929-0.654,1.399-1.836,1.399H209c-1.285,0-2.02-0.677-2.02-1.916C206.98,94.81,207.715,94.133,209,94.133z M215.104,99.364
		v1.262h-6.128v0.976h-0.894c0-0.976-0.471-1.193-1.01-1.388v-0.85H215.104z M209,103.161c2.524,0,3.465,2.512,4.785,2.512
		c0.057,0,0.114,0,0.172-0.011v-2.387h1.147v3.649h-0.987c-2.363,0-2.754-2.502-5.071-2.502c-0.723,0-0.918,0.252-0.918,0.654
		c0,0.401,0.218,0.654,0.792,0.654h0.86v1.193H209c-1.285,0-2.02-0.643-2.02-1.883C206.98,103.803,207.715,103.161,209,103.161z
		 M215.104,108.45v1.262h-6.128v0.975h-0.894c0-0.975-0.471-1.193-1.01-1.389v-0.848H215.104z M209,112.315h0.207
		c0.86,0,1.399,0.275,1.652,0.883c0.275-0.631,0.871-0.883,1.687-0.883h0.631c1.285,0,2.02,0.643,2.02,1.881
		c0,1.24-0.734,1.883-2.02,1.883h-0.665v-1.193h0.745c0.574,0,0.792-0.253,0.792-0.654c0-0.402-0.195-0.654-0.906-0.654h-0.631
		c-0.746,0-1.021,0.252-1.021,0.826v0.424h-1.147v-0.492c0-0.471-0.207-0.758-0.85-0.758h-0.447c-0.723,0-0.918,0.252-0.918,0.654
		c0,0.401,0.218,0.654,0.792,0.654h0.516v1.193H209c-1.285,0-2.02-0.643-2.02-1.883C206.98,112.958,207.715,112.315,209,112.315z
		 M208.976,118.798v0.975h-0.894c0-0.975-0.471-1.193-1.01-1.389v-0.85h8.032v1.264H208.976z M215.104,123.248v1.216h-1.216v-1.216
		H215.104z M210.732,123.248v1.216h-1.216v-1.216H210.732z M209,125.278h4.177c1.285,0,2.02,0.676,2.02,1.916
		c0,1.238-0.734,1.916-2.02,1.916H209c-1.285,0-2.02-0.678-2.02-1.916C206.98,125.954,207.715,125.278,209,125.278z
		 M207.072,131.185v-1.262h8.032v1.262H207.072z M215.104,131.735v3.339h-8.032v-1.263h6.885v-2.076H215.104z M209,135.887h4.177
		c1.285,0,2.02,0.678,2.02,1.916c0,1.24-0.734,1.917-2.02,1.917H209c-1.285,0-2.02-0.677-2.02-1.917
		C206.98,136.565,207.715,135.887,209,135.887z M178.852,90.719h21.354v2.229h-21.354V90.719z M178.852,94.092h21.354v2.229h-21.354
		V94.092z M178.852,97.464h21.354v2.23h-21.354V97.464z M178.852,100.837h21.354v2.23h-21.354V100.837z M178.852,104.21h21.354
		v2.229h-21.354V104.21z M178.852,107.583h21.354v2.229h-21.354V107.583z M178.852,110.555h21.354v1.114h-21.354V110.555z
		 M178.852,112.755h21.354v1.113h-21.354V112.755z M178.852,114.954h21.354v1.113h-21.354V114.954z M178.852,117.151h21.354v1.115
		h-21.354V117.151z M178.852,119.35h21.354v1.113h-21.354V119.35z M178.852,121.548h21.354v1.115h-21.354V121.548z M178.852,123.747
		h21.354v1.114h-21.354V123.747z M178.852,125.762h21.354v2.229h-21.354V125.762z M178.852,128.891h21.354v2.229h-21.354V128.891z
		 M178.852,132.009h21.354v5.965h-21.354V132.009z"/>
	<path style="fill:#F2EBBF;" d="M102.548,134.351c-0.492,0-0.783,0.303-0.783,0.997v0.82c0,0.782,0.341,0.997,0.783,0.997
		c0.441,0,0.77-0.215,0.782-0.997v-0.82C103.33,134.654,103.039,134.351,102.548,134.351z"/>
	<path style="fill:#F2EBBF;" d="M46.588,130.654c-0.442,0-0.72,0.24-0.72,0.871v4.77c0,0.631,0.277,0.871,0.72,0.871
		c0.441,0,0.719-0.24,0.719-0.871v-4.77C47.307,130.894,47.029,130.654,46.588,130.654z"/>
	<path style="fill:#F2EBBF;" d="M208.92,127.848h4.337c0.574,0,0.792-0.254,0.792-0.654c0-0.402-0.218-0.654-0.792-0.654h-4.337
		c-0.574,0-0.792,0.252-0.792,0.654C208.128,127.594,208.346,127.848,208.92,127.848z"/>
	<path style="fill:#F2EBBF;" d="M92.526,130.667c-0.442,0-0.72,0.228-0.72,0.858v1.59c0,0.631,0.277,0.871,0.72,0.871
		c0.441,0,0.719-0.24,0.719-0.871v-1.59C93.245,130.894,92.968,130.667,92.526,130.667z"/>
	<path style="fill:#F2EBBF;" d="M170.152,139.452v-5h2v-5h-2v-5h2v-5h-2v-5h2v-5h-2v-5h2v-5h-2v-5h2v-5h-2v-5h2v-3.659H8v67.106
		h162.152v-3.447h2v-5H170.152z M77.324,87.579h3.288c2.258,0,3.229,1.05,3.229,3.189v1.089c0,1.426-0.456,2.357-1.426,2.813
		c1.089,0.456,1.445,1.505,1.445,2.951v2.139c0,0.673,0.02,1.169,0.237,1.684H81.88c-0.119-0.356-0.198-0.574-0.198-1.703v-2.179
		c0-1.288-0.436-1.763-1.426-1.763h-0.753v5.645h-2.179V87.579z M84.186,102.94v23.492h-2.453V102.94H84.186z M67.43,102.94h1.226
		v23.492H67.43V102.94z M59.914,87.579h5.942v1.98h-3.764v3.862h2.991v1.98h-2.991v4.061h3.764v1.98h-5.942V87.579z M61.399,102.94
		v23.492h-1.226V102.94H61.399z M43.436,90.907c0-2.218,1.168-3.486,3.308-3.486c2.139,0,3.308,1.268,3.308,3.486v7.209
		c0,2.218-1.169,3.485-3.308,3.485c-2.14,0-3.308-1.268-3.308-3.485V90.907z M43.328,102.94h6.563v23.492h-6.563V102.94z
		 M37.313,141.524H14.434V85.1h22.879V141.524z M43.924,130.755H41.64v2.663h1.792v1.262H41.64v3.648h-1.388v-8.834h3.672V130.755z
		 M48.694,136.207c0,1.413-0.744,2.221-2.106,2.221c-1.363,0-2.108-0.808-2.108-2.221v-4.594c0-1.413,0.744-2.221,2.108-2.221
		c1.362,0,2.106,0.808,2.106,2.221V136.207z M53.263,138.327h-3.672v-8.834h1.388v7.572h2.284V138.327z M53.32,126.432h-2.453
		V102.94h2.453V126.432z M53.398,101.443h-1.961V87.579h2.733l2.238,8.299v-8.299h1.94v13.864h-2.238l-2.713-10.041V101.443z
		 M58.98,102.94v23.492h-1.225V102.94H58.98z M56.764,102.94v23.492H54.31V102.94H56.764z M55.257,138.327h-1.388v-8.834h1.388
		V138.327z M60.368,136.207c0,1.413-0.744,2.221-2.106,2.221c-1.363,0-2.107-0.808-2.107-2.221v-4.594
		c0-1.413,0.744-2.221,2.107-2.221c1.362,0,2.106,0.808,2.106,2.221V136.207z M62.603,138.327h-1.338v-1.338h1.338V138.327z
		 M62.603,133.519h-1.338v-1.338h1.338V133.519z M63.818,126.432h-1.225V102.94h1.225V126.432z M66.237,126.432h-1.227V102.94h1.227
		V126.432z M68.887,138.327h-1.388v-6.739h-1.072v-0.983c1.072,0,1.312-0.518,1.526-1.111h0.934V138.327z M69.64,87.579h6.734v1.98
		h-2.277v11.884h-2.179V89.559H69.64V87.579z M76.765,102.94v23.492h-2.452V102.94H76.765z M73.493,102.94v23.492h-1.226V102.94
		H73.493z M69.849,102.94h1.226v23.492h-1.226V102.94z M74.63,131.841c0,0.946-0.303,1.539-0.972,1.817
		c0.693,0.303,0.972,0.959,0.972,1.854v0.694c0,1.413-0.707,2.221-2.069,2.221c-1.363,0-2.07-0.808-2.07-2.221v-0.732h1.313v0.82
		c0,0.631,0.278,0.871,0.72,0.871c0.441,0,0.719-0.215,0.719-0.997v-0.694c0-0.82-0.277-1.123-0.908-1.123h-0.467v-1.262h0.542
		c0.518,0,0.833-0.227,0.833-0.934v-0.492c0-0.795-0.277-1.01-0.719-1.01c-0.441,0-0.72,0.24-0.72,0.871v0.567H70.49v-0.48
		c0-1.413,0.707-2.221,2.07-2.221c1.362,0,2.069,0.808,2.069,2.221V131.841z M78.883,138.327h-1.388v-6.739h-1.072v-0.983
		c1.072,0,1.312-0.518,1.526-1.111h0.934V138.327z M80.476,126.432h-2.452V102.94h2.452V126.432z M81.95,137.065h2.625v1.262h-4.013
		v-1.086c0-2.599,2.751-3.028,2.751-5.577c0-0.795-0.277-1.01-0.72-1.01c-0.441,0-0.719,0.24-0.719,0.871v0.946h-1.313v-0.858
		c0-1.413,0.706-2.221,2.069-2.221c1.363,0,2.069,0.808,2.069,2.221c0,2.776-2.764,3.812-2.764,5.263
		C81.937,136.938,81.937,137.002,81.95,137.065z M85.286,87.579h2.179v13.864h-2.179V87.579z M85.444,102.94h2.453v23.492h-2.453
		V102.94z M88.878,138.327H87.49v-6.739h-1.072v-0.983c1.072,0,1.312-0.518,1.526-1.111h0.934V138.327z M89.049,87.579h3.209
		c2.179,0,3.248,1.208,3.248,3.427v1.802c0,2.218-1.069,3.426-3.248,3.426h-1.03v5.209h-2.179V87.579z M89.155,102.94h2.452v23.492
		h-2.452V102.94z M94.634,136.131c0,1.489-0.682,2.297-2.12,2.297c-1.363,0-2.069-0.808-2.069-2.221v-0.228h1.312v0.315
		c0,0.631,0.278,0.871,0.72,0.871c0.492,0,0.77-0.24,0.77-1.085v-1.615c-0.239,0.505-0.669,0.782-1.287,0.782
		c-1.022,0-1.539-0.72-1.539-2.02v-1.615c0-1.413,0.744-2.221,2.107-2.221c1.362,0,2.107,0.808,2.107,2.221V136.131z
		 M95.318,126.432h-2.452V102.94h2.452V126.432z M99.72,131.891c0,0.87-0.29,1.464-0.858,1.779c0.606,0.34,0.858,0.996,0.858,1.842
		v0.694c0,1.413-0.769,2.221-2.17,2.221c-1.401,0-2.171-0.808-2.171-2.221v-0.694c0-0.846,0.252-1.502,0.858-1.842
		c-0.581-0.315-0.858-0.909-0.858-1.779v-0.278c0-1.413,0.77-2.221,2.171-2.221c1.4,0,2.17,0.808,2.17,2.221V131.891z
		 M104.718,131.891c0,0.87-0.29,1.464-0.858,1.779c0.606,0.34,0.858,0.996,0.858,1.842v0.694c0,1.413-0.77,2.221-2.17,2.221
		c-1.401,0-2.171-0.808-2.171-2.221v-0.694c0-0.846,0.252-1.502,0.858-1.842c-0.581-0.315-0.858-0.909-0.858-1.779v-0.278
		c0-1.413,0.77-2.221,2.171-2.221c1.4,0,2.17,0.808,2.17,2.221V131.891z M137.029,138.326c-14.477,0-26.212-11.735-26.212-26.212
		c0-14.476,11.735-26.211,26.212-26.211c14.475,0,26.21,11.735,26.21,26.211C163.239,126.591,151.504,138.326,137.029,138.326z"/>
	<path style="fill:#F2EBBF;" d="M93.327,92.947v-2.08c0-0.99-0.376-1.308-1.069-1.308h-1.03v4.694h1.03
		C92.951,94.254,93.327,93.937,93.327,92.947z"/>
	<path style="fill:#05293D;" d="M224.692,72.793H4c-2.209,0-4,1.791-4,4v75.106c0,2.209,1.791,4,4,4h220.692c2.209,0,4-1.791,4-4
		V76.793C228.692,74.584,226.901,72.793,224.692,72.793z M172.152,149.452v0.105V149.452z M220.692,147.899h-46.54v-3.447h-2h-2
		v3.447H8V80.793h164.152v-1.341v1.341h48.54V147.899z"/>
	
		<line style="fill:none;stroke:#F2EBBF;stroke-width:0;stroke-linecap:round;stroke-linejoin:round;" x1="172.152" y1="80.793" x2="172.152" y2="79.452"/>
	
		<line style="fill:none;stroke:#F2EBBF;stroke-width:0;stroke-linecap:round;stroke-linejoin:round;" x1="172.152" y1="129.452" x2="172.152" y2="134.452"/>
	
		<line style="fill:none;stroke:#F2EBBF;stroke-width:0;stroke-linecap:round;stroke-linejoin:round;" x1="172.152" y1="149.452" x2="172.152" y2="149.557"/>
	
		<line style="fill:none;stroke:#F2EBBF;stroke-width:0;stroke-linecap:round;stroke-linejoin:round;" x1="172.152" y1="119.452" x2="172.152" y2="124.452"/>
	
		<line style="fill:none;stroke:#F2EBBF;stroke-width:0;stroke-linecap:round;stroke-linejoin:round;" x1="172.152" y1="139.452" x2="172.152" y2="144.452"/>
	
		<line style="fill:none;stroke:#F2EBBF;stroke-width:0;stroke-linecap:round;stroke-linejoin:round;" x1="172.152" y1="89.452" x2="172.152" y2="94.452"/>
	
		<line style="fill:none;stroke:#F2EBBF;stroke-width:0;stroke-linecap:round;stroke-linejoin:round;" x1="172.152" y1="80.793" x2="172.152" y2="84.452"/>
	
		<line style="fill:none;stroke:#F2EBBF;stroke-width:0;stroke-linecap:round;stroke-linejoin:round;" x1="172.152" y1="109.452" x2="172.152" y2="114.452"/>
	
		<line style="fill:none;stroke:#F2EBBF;stroke-width:0;stroke-linecap:round;stroke-linejoin:round;" x1="172.152" y1="99.452" x2="172.152" y2="104.452"/>
	<polygon style="fill:#05293D;" points="170.152,119.452 172.152,119.452 174.152,119.452 174.152,114.452 172.152,114.452 
		170.152,114.452 	"/>
	<polygon style="fill:#05293D;" points="170.152,109.452 172.152,109.452 174.152,109.452 174.152,104.452 172.152,104.452 
		170.152,104.452 	"/>
	<polygon style="fill:#05293D;" points="170.152,89.452 172.152,89.452 174.152,89.452 174.152,84.452 172.152,84.452 
		170.152,84.452 	"/>
	<polygon style="fill:#05293D;" points="170.152,99.452 172.152,99.452 174.152,99.452 174.152,94.452 172.152,94.452 
		170.152,94.452 	"/>
	<polygon style="fill:#05293D;" points="170.152,129.452 172.152,129.452 174.152,129.452 174.152,124.452 172.152,124.452 
		170.152,124.452 	"/>
	<polygon style="fill:#05293D;" points="170.152,139.452 172.152,139.452 174.152,139.452 174.152,134.452 172.152,134.452 
		170.152,134.452 	"/>
	<rect x="14.434" y="85.1" style="fill:#8CBEB2;" width="22.879" height="56.424"/>
	<path style="fill:#05293D;" d="M46.744,101.601c2.139,0,3.308-1.268,3.308-3.485v-7.209c0-2.218-1.169-3.486-3.308-3.486
		c-2.14,0-3.308,1.268-3.308,3.486v7.209C43.436,100.334,44.604,101.601,46.744,101.601z M45.615,90.768
		c0-0.99,0.436-1.367,1.129-1.367c0.693,0,1.129,0.377,1.129,1.367v7.486c0,0.991-0.436,1.367-1.129,1.367
		c-0.693,0-1.129-0.376-1.129-1.367V90.768z"/>
	<polygon style="fill:#05293D;" points="58.35,101.443 58.35,87.579 56.409,87.579 56.409,95.878 54.171,87.579 51.437,87.579 
		51.437,101.443 53.398,101.443 53.398,91.402 56.111,101.443 	"/>
	<polygon style="fill:#05293D;" points="65.856,99.463 62.093,99.463 62.093,95.402 65.084,95.402 65.084,93.422 62.093,93.422 
		62.093,89.559 65.856,89.559 65.856,87.579 59.914,87.579 59.914,101.443 65.856,101.443 	"/>
	<polygon style="fill:#05293D;" points="71.918,101.443 74.097,101.443 74.097,89.559 76.374,89.559 76.374,87.579 69.64,87.579 
		69.64,89.559 71.918,89.559 	"/>
	<path style="fill:#05293D;" d="M79.503,95.799h0.753c0.99,0,1.426,0.475,1.426,1.763v2.179c0,1.129,0.079,1.347,0.198,1.703h2.218
		c-0.218-0.515-0.237-1.011-0.237-1.684V97.62c0-1.446-0.356-2.495-1.445-2.951c0.97-0.455,1.426-1.387,1.426-2.813v-1.089
		c0-2.139-0.971-3.189-3.229-3.189h-3.288v13.864h2.179V95.799z M79.503,89.559h1.05c0.773,0,1.109,0.436,1.109,1.426v1.367
		c0,1.109-0.495,1.465-1.308,1.465h-0.852V89.559z"/>
	<rect x="85.286" y="87.579" style="fill:#05293D;" width="2.179" height="13.864"/>
	<path style="fill:#05293D;" d="M91.227,96.234h1.03c2.179,0,3.248-1.208,3.248-3.426v-1.802c0-2.218-1.069-3.427-3.248-3.427
		h-3.209v13.864h2.179V96.234z M91.227,89.559h1.03c0.693,0,1.069,0.317,1.069,1.308v2.08c0,0.99-0.376,1.307-1.069,1.307h-1.03
		V89.559z"/>
	<path style="fill:#8CBEB2;" d="M149.836,102.347c-1.207,0-1.966,0.655-1.966,2.38v13.035c0,1.725,0.759,2.379,1.966,2.379
		s1.966-0.654,1.966-2.379v-13.035C151.802,103.003,151.043,102.347,149.836,102.347z"/>
	<path style="fill:#8CBEB2;" d="M136.177,102.347c-1.207,0-2.138,0.587-2.138,2.759v1.345c0,1.931,0.896,2.552,2.138,2.552
		c1.207,0,2.138-0.621,2.138-2.552v-1.345C138.314,102.934,137.384,102.347,136.177,102.347z"/>
	<path style="fill:#8CBEB2;" d="M136.177,112.452c-1.345,0-2.138,0.827-2.138,2.725v2.24c0,2.139,0.931,2.725,2.138,2.725
		c1.207,0,2.104-0.586,2.138-2.725v-2.24C138.314,113.279,137.521,112.452,136.177,112.452z"/>
	<path style="fill:#8CBEB2;" d="M137.029,85.904c-14.477,0-26.212,11.735-26.212,26.211c0,14.476,11.735,26.212,26.212,26.212
		c14.475,0,26.21-11.735,26.21-26.212C163.239,97.638,151.504,85.904,137.029,85.904z M124.07,123.107v1.759h-3.104v-1.759
		c-2.725-0.552-4.104-2.655-4.104-5.931v-1.656h3.586v1.896c0,1.725,0.759,2.346,1.966,2.346s1.966-0.621,1.966-2.346
		c0-4.965-7.414-5.207-7.414-12.104c0-3.242,1.345-5.311,4-5.896v-1.794h3.104v1.794c2.689,0.551,4.069,2.62,4.069,5.896v0.758
		h-3.587v-1c0-1.724-0.689-2.379-1.896-2.379c-1.207,0-1.896,0.655-1.896,2.379c0,4.967,7.414,5.208,7.414,12.105
		C128.174,120.452,126.76,122.555,124.07,123.107z M142.108,105.727c0,2.379-0.794,4-2.346,4.861
		c1.655,0.932,2.346,2.725,2.346,5.035v1.896c0,3.863-2.104,6.07-5.932,6.07c-3.828,0-5.932-2.207-5.932-6.07v-1.896
		c0-2.311,0.689-4.104,2.345-5.035c-1.586-0.861-2.345-2.482-2.345-4.861v-0.76c0-3.861,2.104-6.068,5.932-6.068
		c3.828,0,5.932,2.207,5.932,6.068V105.727z M155.595,117.52c0,3.863-2.034,6.07-5.759,6.07c-3.725,0-5.759-2.207-5.759-6.07
		v-12.553c0-3.861,2.034-6.068,5.759-6.068c3.725,0,5.759,2.207,5.759,6.068V117.52z"/>
	<path style="fill:#05293D;" d="M120.76,105.071c0-1.724,0.689-2.379,1.896-2.379c1.207,0,1.896,0.655,1.896,2.379v1h3.587v-0.758
		c0-3.276-1.38-5.346-4.069-5.896v-1.794h-3.104v1.794c-2.655,0.586-4,2.654-4,5.896c0,6.896,7.414,7.139,7.414,12.104
		c0,1.725-0.759,2.346-1.966,2.346s-1.966-0.621-1.966-2.346v-1.896h-3.586v1.656c0,3.275,1.379,5.379,4.104,5.931v1.759h3.104
		v-1.759c2.689-0.552,4.104-2.655,4.104-5.931C128.174,110.279,120.76,110.038,120.76,105.071z"/>
	<path style="fill:#05293D;" d="M136.177,98.899c-3.828,0-5.932,2.207-5.932,6.068v0.76c0,2.379,0.759,4,2.345,4.861
		c-1.655,0.932-2.345,2.725-2.345,5.035v1.896c0,3.863,2.104,6.07,5.932,6.07c3.828,0,5.932-2.207,5.932-6.07v-1.896
		c0-2.311-0.691-4.104-2.346-5.035c1.552-0.861,2.346-2.482,2.346-4.861v-0.76C142.108,101.106,140.005,98.899,136.177,98.899z
		 M138.314,117.417c-0.034,2.139-0.931,2.725-2.138,2.725c-1.207,0-2.138-0.586-2.138-2.725v-2.24c0-1.897,0.793-2.725,2.138-2.725
		c1.345,0,2.138,0.827,2.138,2.725V117.417z M138.314,106.451c0,1.931-0.931,2.552-2.138,2.552c-1.241,0-2.138-0.621-2.138-2.552
		v-1.345c0-2.172,0.931-2.759,2.138-2.759c1.207,0,2.138,0.587,2.138,2.759V106.451z"/>
	<path style="fill:#05293D;" d="M149.836,98.899c-3.725,0-5.759,2.207-5.759,6.068v12.553c0,3.863,2.034,6.07,5.759,6.07
		c3.725,0,5.759-2.207,5.759-6.07v-12.553C155.595,101.106,153.56,98.899,149.836,98.899z M151.802,117.762
		c0,1.725-0.759,2.379-1.966,2.379s-1.966-0.654-1.966-2.379v-13.035c0-1.725,0.759-2.38,1.966-2.38s1.966,0.655,1.966,2.38V117.762
		z"/>
	<polygon style="fill:#05293D;" points="40.252,138.327 41.64,138.327 41.64,134.679 43.432,134.679 43.432,133.418 41.64,133.418 
		41.64,130.755 43.924,130.755 43.924,129.493 40.252,129.493 	"/>
	<path style="fill:#05293D;" d="M46.588,129.392c-1.363,0-2.108,0.808-2.108,2.221v4.594c0,1.413,0.744,2.221,2.108,2.221
		c1.362,0,2.106-0.808,2.106-2.221v-4.594C48.694,130.2,47.95,129.392,46.588,129.392z M47.307,136.295
		c0,0.631-0.277,0.871-0.719,0.871c-0.442,0-0.72-0.24-0.72-0.871v-4.77c0-0.631,0.277-0.871,0.72-0.871
		c0.441,0,0.719,0.24,0.719,0.871V136.295z"/>
	<polygon style="fill:#05293D;" points="50.978,129.493 49.591,129.493 49.591,138.327 53.263,138.327 53.263,137.065 
		50.978,137.065 	"/>
	<rect x="53.869" y="129.493" style="fill:#05293D;" width="1.388" height="8.834"/>
	<path style="fill:#05293D;" d="M58.262,129.392c-1.363,0-2.107,0.808-2.107,2.221v4.594c0,1.413,0.744,2.221,2.107,2.221
		c1.362,0,2.106-0.808,2.106-2.221v-4.594C60.368,130.2,59.624,129.392,58.262,129.392z M58.98,136.295
		c0,0.631-0.277,0.871-0.719,0.871c-0.442,0-0.72-0.24-0.72-0.871v-4.77c0-0.631,0.277-0.871,0.72-0.871
		c0.441,0,0.719,0.24,0.719,0.871V136.295z"/>
	<rect x="61.266" y="132.181" style="fill:#05293D;" width="1.338" height="1.338"/>
	<rect x="61.266" y="136.989" style="fill:#05293D;" width="1.338" height="1.338"/>
	<path style="fill:#05293D;" d="M66.427,130.604v0.983h1.072v6.739h1.388v-8.834h-0.934
		C67.738,130.087,67.499,130.604,66.427,130.604z"/>
	<path style="fill:#05293D;" d="M72.56,129.392c-1.363,0-2.07,0.808-2.07,2.221v0.48h1.313v-0.567c0-0.631,0.278-0.871,0.72-0.871
		c0.441,0,0.719,0.215,0.719,1.01v0.492c0,0.707-0.315,0.934-0.833,0.934h-0.542v1.262h0.467c0.631,0,0.908,0.303,0.908,1.123v0.694
		c0,0.782-0.277,0.997-0.719,0.997c-0.441,0-0.72-0.24-0.72-0.871v-0.82H70.49v0.732c0,1.413,0.707,2.221,2.07,2.221
		c1.362,0,2.069-0.808,2.069-2.221v-0.694c0-0.895-0.278-1.552-0.972-1.854c0.669-0.278,0.972-0.871,0.972-1.817v-0.228
		C74.63,130.2,73.923,129.392,72.56,129.392z"/>
	<path style="fill:#05293D;" d="M76.423,130.604v0.983h1.072v6.739h1.388v-8.834h-0.934
		C77.734,130.087,77.495,130.604,76.423,130.604z"/>
	<path style="fill:#05293D;" d="M82.632,129.392c-1.363,0-2.069,0.808-2.069,2.221v0.858h1.313v-0.946
		c0-0.631,0.277-0.871,0.719-0.871c0.442,0,0.72,0.215,0.72,1.01c0,2.549-2.751,2.979-2.751,5.577v1.086h4.013v-1.262H81.95
		c-0.013-0.063-0.013-0.127-0.013-0.189c0-1.451,2.764-2.486,2.764-5.263C84.701,130.2,83.995,129.392,82.632,129.392z"/>
	<path style="fill:#05293D;" d="M86.418,130.604v0.983h1.072v6.739h1.388v-8.834h-0.934
		C87.729,130.087,87.49,130.604,86.418,130.604z"/>
	<path style="fill:#05293D;" d="M92.526,129.392c-1.363,0-2.107,0.808-2.107,2.221v1.615c0,1.3,0.518,2.02,1.539,2.02
		c0.618,0,1.048-0.277,1.287-0.782v1.615c0,0.845-0.277,1.085-0.77,1.085c-0.441,0-0.72-0.24-0.72-0.871v-0.315h-1.312v0.228
		c0,1.413,0.706,2.221,2.069,2.221c1.438,0,2.12-0.808,2.12-2.297v-4.518C94.634,130.2,93.889,129.392,92.526,129.392z
		 M93.245,133.115c0,0.631-0.277,0.871-0.719,0.871c-0.442,0-0.72-0.24-0.72-0.871v-1.59c0-0.631,0.277-0.858,0.72-0.858
		c0.441,0,0.719,0.228,0.719,0.858V133.115z"/>
	<path style="fill:#05293D;" d="M97.55,129.392c-1.401,0-2.171,0.808-2.171,2.221v0.278c0,0.87,0.277,1.464,0.858,1.779
		c-0.606,0.34-0.858,0.996-0.858,1.842v0.694c0,1.413,0.77,2.221,2.171,2.221c1.4,0,2.17-0.808,2.17-2.221v-0.694
		c0-0.846-0.252-1.502-0.858-1.842c0.568-0.315,0.858-0.909,0.858-1.779v-0.278C99.72,130.2,98.95,129.392,97.55,129.392z
		 M98.332,136.169c-0.013,0.782-0.341,0.997-0.782,0.997c-0.442,0-0.783-0.215-0.783-0.997v-0.82c0-0.694,0.291-0.997,0.783-0.997
		c0.491,0,0.782,0.303,0.782,0.997V136.169z M98.332,132.156c0,0.707-0.341,0.934-0.782,0.934c-0.455,0-0.783-0.227-0.783-0.934
		v-0.492c0-0.795,0.341-1.01,0.783-1.01c0.441,0,0.782,0.215,0.782,1.01V132.156z"/>
	<path style="fill:#05293D;" d="M102.548,129.392c-1.401,0-2.171,0.808-2.171,2.221v0.278c0,0.87,0.277,1.464,0.858,1.779
		c-0.606,0.34-0.858,0.996-0.858,1.842v0.694c0,1.413,0.77,2.221,2.171,2.221c1.4,0,2.17-0.808,2.17-2.221v-0.694
		c0-0.846-0.252-1.502-0.858-1.842c0.568-0.315,0.858-0.909,0.858-1.779v-0.278C104.718,130.2,103.948,129.392,102.548,129.392z
		 M103.33,136.169c-0.013,0.782-0.341,0.997-0.782,0.997c-0.442,0-0.783-0.215-0.783-0.997v-0.82c0-0.694,0.291-0.997,0.783-0.997
		c0.491,0,0.782,0.303,0.782,0.997V136.169z M103.33,132.156c0,0.707-0.341,0.934-0.782,0.934c-0.455,0-0.783-0.227-0.783-0.934
		v-0.492c0-0.795,0.341-1.01,0.783-1.01c0.441,0,0.782,0.215,0.782,1.01V132.156z"/>
	<rect x="43.328" y="102.94" style="fill:#05293D;" width="6.563" height="23.492"/>
	<rect x="50.867" y="102.94" style="fill:#05293D;" width="2.453" height="23.492"/>
	<rect x="54.31" y="102.94" style="fill:#05293D;" width="2.453" height="23.492"/>
	<rect x="74.313" y="102.94" style="fill:#05293D;" width="2.452" height="23.492"/>
	<rect x="78.023" y="102.94" style="fill:#05293D;" width="2.452" height="23.492"/>
	<rect x="81.733" y="102.94" style="fill:#05293D;" width="2.453" height="23.492"/>
	<rect x="85.444" y="102.94" style="fill:#05293D;" width="2.453" height="23.492"/>
	<rect x="89.155" y="102.94" style="fill:#05293D;" width="2.452" height="23.492"/>
	<rect x="92.866" y="102.94" style="fill:#05293D;" width="2.452" height="23.492"/>
	<rect x="57.755" y="102.94" style="fill:#05293D;" width="1.225" height="23.492"/>
	<rect x="60.174" y="102.94" style="fill:#05293D;" width="1.226" height="23.492"/>
	<rect x="62.593" y="102.94" style="fill:#05293D;" width="1.225" height="23.492"/>
	<rect x="65.011" y="102.94" style="fill:#05293D;" width="1.227" height="23.492"/>
	<rect x="67.43" y="102.94" style="fill:#05293D;" width="1.226" height="23.492"/>
	<rect x="69.849" y="102.94" style="fill:#05293D;" width="1.226" height="23.492"/>
	<rect x="72.268" y="102.94" style="fill:#05293D;" width="1.225" height="23.492"/>
	<polygon style="fill:#05293D;" points="211.788,140.672 210.641,140.672 210.641,142.302 208.22,142.302 208.22,140.224 
		207.072,140.224 207.072,143.563 215.104,143.563 215.104,142.302 211.788,142.302 	"/>
	<path style="fill:#05293D;" d="M209,139.72h4.177c1.285,0,2.02-0.677,2.02-1.917c0-1.238-0.734-1.916-2.02-1.916H209
		c-1.285,0-2.02,0.678-2.02,1.916C206.98,139.044,207.715,139.72,209,139.72z M208.92,137.15h4.337c0.574,0,0.792,0.252,0.792,0.653
		c0,0.402-0.218,0.654-0.792,0.654h-4.337c-0.574,0-0.792-0.252-0.792-0.654C208.128,137.402,208.346,137.15,208.92,137.15z"/>
	<polygon style="fill:#05293D;" points="207.072,133.811 207.072,135.074 215.104,135.074 215.104,131.735 213.957,131.735 
		213.957,133.811 	"/>
	<rect x="207.072" y="129.924" style="fill:#05293D;" width="8.032" height="1.262"/>
	<path style="fill:#05293D;" d="M209,129.11h4.177c1.285,0,2.02-0.678,2.02-1.916c0-1.24-0.734-1.916-2.02-1.916H209
		c-1.285,0-2.02,0.676-2.02,1.916C206.98,128.432,207.715,129.11,209,129.11z M208.92,126.54h4.337c0.574,0,0.792,0.252,0.792,0.654
		c0,0.4-0.218,0.654-0.792,0.654h-4.337c-0.574,0-0.792-0.254-0.792-0.654C208.128,126.792,208.346,126.54,208.92,126.54z"/>
	<rect x="209.517" y="123.248" style="fill:#05293D;" width="1.216" height="1.216"/>
	<rect x="213.889" y="123.248" style="fill:#05293D;" width="1.216" height="1.216"/>
	<path style="fill:#05293D;" d="M215.104,117.534h-8.032v0.85c0.539,0.195,1.01,0.414,1.01,1.389h0.894v-0.975h6.128V117.534z"/>
	<path style="fill:#05293D;" d="M209,116.079h0.435v-1.193h-0.516c-0.574,0-0.792-0.253-0.792-0.654
		c0-0.402,0.195-0.654,0.918-0.654h0.447c0.643,0,0.85,0.287,0.85,0.758v0.492h1.147v-0.424c0-0.574,0.275-0.826,1.021-0.826h0.631
		c0.711,0,0.906,0.252,0.906,0.654c0,0.401-0.218,0.654-0.792,0.654h-0.745v1.193h0.665c1.285,0,2.02-0.643,2.02-1.883
		c0-1.238-0.734-1.881-2.02-1.881h-0.631c-0.816,0-1.411,0.252-1.687,0.883c-0.253-0.608-0.792-0.883-1.652-0.883H209
		c-1.285,0-2.02,0.643-2.02,1.881C206.98,115.436,207.715,116.079,209,116.079z"/>
	<path style="fill:#05293D;" d="M207.072,109.298c0.539,0.195,1.01,0.414,1.01,1.389h0.894v-0.975h6.128v-1.262h-8.032V109.298z"/>
	<path style="fill:#05293D;" d="M209,106.925h0.78v-1.193h-0.86c-0.574,0-0.792-0.253-0.792-0.654c0-0.402,0.195-0.654,0.918-0.654
		c2.317,0,2.708,2.502,5.071,2.502h0.987v-3.649h-1.147v2.387c-0.058,0.011-0.115,0.011-0.172,0.011
		c-1.32,0-2.261-2.512-4.785-2.512c-1.285,0-2.02,0.642-2.02,1.881C206.98,106.282,207.715,106.925,209,106.925z"/>
	<path style="fill:#05293D;" d="M207.072,100.214c0.539,0.194,1.01,0.412,1.01,1.388h0.894v-0.976h6.128v-1.262h-8.032V100.214z"/>
	<path style="fill:#05293D;" d="M209,97.965h1.469c1.182,0,1.836-0.47,1.836-1.399c0-0.563-0.252-0.953-0.711-1.171h1.469
		c0.769,0,0.986,0.253,0.986,0.7c0,0.401-0.218,0.654-0.792,0.654h-0.286v1.193h0.206c1.285,0,2.02-0.643,2.02-1.882
		c0-1.309-0.734-1.928-2.089-1.928H209c-1.285,0-2.02,0.677-2.02,1.916C206.98,97.288,207.715,97.965,209,97.965z M208.92,95.395
		h1.445c0.574,0,0.792,0.253,0.792,0.654c0,0.401-0.218,0.654-0.792,0.654h-1.445c-0.574,0-0.78-0.253-0.78-0.654
		C208.14,95.648,208.346,95.395,208.92,95.395z"/>
	<path style="fill:#05293D;" d="M209,93.457h0.252c0.792,0,1.332-0.253,1.618-0.78c0.31,0.551,0.907,0.78,1.676,0.78h0.631
		c1.285,0,2.02-0.7,2.02-1.974c0-1.274-0.734-1.974-2.02-1.974h-0.631c-0.769,0-1.366,0.229-1.676,0.78
		c-0.286-0.516-0.826-0.78-1.618-0.78H209c-1.285,0-2.02,0.7-2.02,1.974C206.98,92.757,207.715,93.457,209,93.457z M212.396,90.772
		h0.746c0.711,0.012,0.906,0.31,0.906,0.711c0,0.402-0.195,0.711-0.906,0.711h-0.746c-0.631,0-0.906-0.264-0.906-0.711
		C211.49,91.035,211.766,90.772,212.396,90.772z M209.046,90.772h0.447c0.643,0,0.85,0.31,0.85,0.711
		c0,0.413-0.207,0.711-0.85,0.711h-0.447c-0.723,0-0.918-0.31-0.918-0.711C208.128,91.081,208.323,90.772,209.046,90.772z"/>
	<path style="fill:#05293D;" d="M209,88.914h0.252c0.792,0,1.332-0.253,1.618-0.78c0.31,0.551,0.907,0.78,1.676,0.78h0.631
		c1.285,0,2.02-0.7,2.02-1.974c0-1.273-0.734-1.974-2.02-1.974h-0.631c-0.769,0-1.366,0.229-1.676,0.78
		c-0.286-0.517-0.826-0.78-1.618-0.78H209c-1.285,0-2.02,0.7-2.02,1.974C206.98,88.214,207.715,88.914,209,88.914z M212.396,86.229
		h0.746c0.711,0.011,0.906,0.31,0.906,0.711c0,0.401-0.195,0.711-0.906,0.711h-0.746c-0.631,0-0.906-0.264-0.906-0.711
		C211.49,86.493,211.766,86.229,212.396,86.229z M209.046,86.229h0.447c0.643,0,0.85,0.31,0.85,0.711
		c0,0.413-0.207,0.711-0.85,0.711h-0.447c-0.723,0-0.918-0.31-0.918-0.711C208.128,86.539,208.323,86.229,209.046,86.229z"/>
	<rect x="178.852" y="132.009" style="fill:#05293D;" width="21.354" height="5.965"/>
	<rect x="178.852" y="128.891" style="fill:#05293D;" width="21.354" height="2.23"/>
	<rect x="178.852" y="125.762" style="fill:#05293D;" width="21.354" height="2.229"/>
	<rect x="178.852" y="107.583" style="fill:#05293D;" width="21.354" height="2.228"/>
	<rect x="178.852" y="104.21" style="fill:#05293D;" width="21.354" height="2.228"/>
	<rect x="178.852" y="100.837" style="fill:#05293D;" width="21.354" height="2.23"/>
	<rect x="178.852" y="97.464" style="fill:#05293D;" width="21.354" height="2.23"/>
	<rect x="178.852" y="94.092" style="fill:#05293D;" width="21.354" height="2.229"/>
	<rect x="178.852" y="90.719" style="fill:#05293D;" width="21.354" height="2.229"/>
	<rect x="178.852" y="123.747" style="fill:#05293D;" width="21.354" height="1.114"/>
	<rect x="178.852" y="121.548" style="fill:#05293D;" width="21.354" height="1.115"/>
	<rect x="178.852" y="119.35" style="fill:#05293D;" width="21.354" height="1.113"/>
	<rect x="178.852" y="117.151" style="fill:#05293D;" width="21.354" height="1.115"/>
	<rect x="178.852" y="114.954" style="fill:#05293D;" width="21.354" height="1.113"/>
	<rect x="178.852" y="112.755" style="fill:#05293D;" width="21.354" height="1.113"/>
	<rect x="178.852" y="110.555" style="fill:#05293D;" width="21.354" height="1.114"/>
</g>
<g>
</g>
<g>
</g>
<g>
</g>
<g>
</g>
<g>
</g>
<g>
</g>
<g>
</g>
<g>
</g>
<g>
</g>
<g>
</g>
<g>
</g>
<g>
</g>
<g>
</g>
<g>
</g>
<g>
</g>
</svg>
