<svg id="e0O74FQ1ksb1" xmlns="http://www.w3.org/2000/svg" xmlns:xlink="http://www.w3.org/1999/xlink" viewBox="0 0 500 500" shape-rendering="geometricPrecision" text-rendering="geometricPrecision"><path d="M63.45,59l-6.09,6.1c-1.109415,1.092808-2.890585,1.092808-4,0L34.9,46.67c-1.092808-1.109415-1.092808-2.890585,0-4L41,36.55c.738001-.743358.842979-1.906517.25-2.77-2.837309-4.197455-5.309688-8.63034-7.39-13.25-.418558-.944531-1.276238-1.621685-2.29211-1.809661s-2.059067.13744-2.78789.869661l-6.25,6.25c-3.410796,3.419148-4.683868,8.427078-3.32,13.06C25.086619,59.110711,40.889289,74.913381,61.1,80.79c4.632922,1.363868,9.640852.090796,13.06-3.32l6.25-6.25c.732221-.728823,1.057637-1.772018.869661-2.78789s-.86513-1.873552-1.809661-2.29211c-4.61966-2.080312-9.052545-4.552691-13.25-7.39-.863483-.592979-2.026642-.488001-2.77.25Z" transform="matrix(6.612797 0 0 6.383655-80.652953-69.170117)" fill="#5483cc"/></svg>