<svg cache-id="fbc3d37434754aca814bc03160d11edb" id="e7tUbI4wmS11" xmlns="http://www.w3.org/2000/svg" xmlns:xlink="http://www.w3.org/1999/xlink" viewBox="0 0 500 500" shape-rendering="geometricPrecision" text-rendering="geometricPrecision"><g transform="matrix(7.837544 0 0 7.295553-252.46736-250.631401)"><g transform="translate(0 0.000002)"><g><path d="M68,71h-8c-1.104569,0-2,.895431-2,2v14h12v-14c0-1.104569-.895431-2-2-2Z" fill="#5483cc" stroke-width="4" stroke-linecap="round" stroke-linejoin="round"/></g><path d="M82,67.3l-18-18-18,18v17.7c0,1.104569.895431,2,2,2h10v-14c0-1.104569.895431-2,2-2h8c1.104569,0,2,.895431,2,2v14h10c1.104569,0,2-.895431,2-2v-17.7Z" fill="#aac1e6" stroke-width="4" stroke-linecap="round" stroke-linejoin="round"/><g transform="translate(0 16.388891)" opacity="0"><path d="M0,6v-6h6" transform="matrix(.707107 0.707107-.707107 0.707107 64 73.166666)" fill="none" stroke="#5483cc" stroke-width="3.33" stroke-linecap="round" stroke-linejoin="round"/><path d="M70,89.166667v12.499999" transform="translate(-6-15.166667)" fill="#ffd41d" stroke="#5483cc" stroke-width="3.33" stroke-linecap="round" stroke-linejoin="round"/></g><path d="M88,63.33v0L66.8,42.13c-.750273-.751108-1.768363-1.173147-2.83-1.173147s-2.079727.422039-2.83,1.173147L40,63.35v0c-1.264949,1.398884-1.211059,3.543861.12254,4.87746s3.478576,1.387489,4.87746.12254L64,49.3l19,19c.961356.939511,2.366058,1.265169,3.642747.844513s2.212677-1.517545,2.427253-2.844513c.235166-1.112789-.179174-2.262872-1.07-2.97Z" fill="#5483cc" stroke-width="4" stroke-linecap="round" stroke-linejoin="round"/></g></g></svg>