<svg id="eUhFVnpl1E21" xmlns="http://www.w3.org/2000/svg" xmlns:xlink="http://www.w3.org/1999/xlink" viewBox="0 0 50 50" shape-rendering="geometricPrecision" text-rendering="geometricPrecision"><g transform="matrix(.024767 0 0-.024874 0.236353 49.878131)"><path d="M1230,1831c-121-39-197-128-249-292-40-126-52-234-61-564-12-393-33-554-91-667-29-57-57-78-102-78-34,0-45,6-82,47-40,43-46,46-71,38-68-25-53-81,36-128c48-25,62-28,110-23c178,20,285,163,335,451c11,59,19,200,25,410c11,392,33,554,91,667c29,57,57,78,102,78c34,0,45-6,82-47c40-43,46-46,71-38c62,22,55,74-17,122-44,29-129,40-179,24Z"/></g></svg>