<svg class="windowIcons" xmlns="http://www.w3.org/2000/svg" xmlns:xlink="http://www.w3.org/1999/xlink" viewBox="0 0 50 50" shape-rendering="geometricPrecision" text-rendering="geometricPrecision"><g transform="translate(.000001 0.851953)"><text dx="0" dy="0" font-family="&quot;Roboto&quot;" font-size="6" font-weight="400" transform="translate(28.3492 28.8978)" stroke-width="0"><tspan y="0" font-family="&quot;Roboto&quot;" font-size="6" font-weight="400" font-style="normal" stroke-width="0"></tspan></text><g transform="matrix(.13 0 0 0.13 0.410435-.441484)"><g><path d="M371.561,137.257L194.91,45.557c-3.611-1.874-7.907-1.874-11.519,0l-176.65,91.7C2.6,139.407,0.001,143.684,0,148.35c0,0,0,0,0,.001v47.864c0,6.902,5.596,12.5,12.5,12.5s12.5-5.598,12.5-12.5v-27.292l26.793,13.909v99.542c0,2.607.815,5.149,2.333,7.271c1.3,1.817,33,44.504,135.025,44.504s133.722-42.687,135.023-44.504c1.516-2.121,2.33-4.664,2.33-7.271v-99.542l45.057-23.388c4.141-2.15,6.74-6.428,6.74-11.094s-2.6-8.943-6.74-11.093ZM301.504,277.548c-8.301,7.979-39.078,31.603-112.353,31.603s-104.054-23.624-112.356-31.603v-81.737l106.597,55.335c1.806.938,3.782,1.406,5.759,1.406s3.955-.469,5.759-1.406l106.594-55.334v81.736Zm-112.353-51.58L39.632,148.352L189.151,70.735L338.67,148.352L189.151,225.968Z" fill="#0061f4"/><path d="M12.501,219.736c-6.904,0-12.5,5.597-12.5,12.5v15.117c0,6.903,5.596,12.5,12.5,12.5s12.5-5.597,12.5-12.5v-15.117c0-6.903-5.596-12.5-12.5-12.5Z" fill="#0061f4"/></g></g></g></svg>