<svg id="e2wSYyKfR7J1" xmlns="http://www.w3.org/2000/svg" xmlns:xlink="http://www.w3.org/1999/xlink" viewBox="0 0 50 50" height="100px" width="100px" shape-rendering="geometricPrecision" text-rendering="geometricPrecision"><path d="M80.78,40.82c-.132213-.722274-.813888-1.209185-1.54-1.1l-7.62,1.13c-.696327-1.633869-1.575248-3.183723-2.62-4.62l4.79-6c.455836-.572955.376273-1.403949-.18-1.88l-6-5.06c-.566772-.469743-1.404419-.403263-1.89.15L60.61,29.2c-1.591648-.798165-3.269162-1.412135-5-1.83l-.21-7.7c-.021509-.731576-.618125-1.314935-1.35-1.32h-7.99c-.731875.005065-1.328491.588424-1.35,1.32l-.21,7.7c-1.730863.417781-3.408386,1.031755-5,1.83l-5.11-5.76c-.485581-.553263-1.323228-.619743-1.89-.15l-6,5.06c-.556273.476051-.635836,1.307045-.18,1.88l4.79,6c-1.062158,1.433871-1.957907,2.983818-2.67,4.62l-7.62-1.13c-.726112-.109185-1.407787.377726-1.54,1.1l-1.37,7.76c-.12262.723516.350871,1.413838,1.07,1.56l7.55,1.55c.105821,1.782593.414479,3.547316.92,5.26l-6.56,4c-.623979.383849-.831787,1.192976-.47,1.83l3.94,6.82c.37011.632671,1.175023.858224,1.82.51l6.78-3.67c1.211901,1.304902,2.567136,2.468928,4.04,3.47l-2.43,7.31c-.234704.697999.128786,1.456008.82,1.71l7.4,2.69c.689823.245373,1.450094-.099401,1.72-.78l2.83-7.16c1.77403.206162,3.56597.206162,5.34,0l2.83,7.16c.269906.680599,1.030177,1.025373,1.72.78l7.4-2.69c.691214-.253992,1.054704-1.012001.82-1.71L63,69.91c1.484755-.986138,2.853423-2.136759,4.08-3.43l6.78,3.67c.644977.348224,1.44989.122671,1.82-.51l3.94-6.82c.358919-.629658.160994-1.430156-.45-1.82l-6.56-4c.505521-1.712684.814179-3.477407.92-5.26l7.55-1.55c.719129-.146162,1.19262-.836484,1.07-1.56ZM50,63.37c-7.245976,0-13.12-5.874024-13.12-13.12s5.874024-13.12,13.12-13.12s13.12,5.874024,13.12,13.12-5.874024,13.12-13.12,13.12Z" transform="matrix(.75 0 0 0.75-12.522499-12.518339)" fill="#c0c0c0" stroke="#000" stroke-opacity="0.75"/></svg>