<svg class="windowIcons" xmlns="http://www.w3.org/2000/svg" xmlns:xlink="http://www.w3.org/1999/xlink" viewBox="0 0 50 50" shape-rendering="geometricPrecision" text-rendering="geometricPrecision" width="50" height="50"><text dx="0" dy="0" font-family="&quot;Roboto&quot;" font-size="2.5" font-weight="400" transform="translate(28.349191 28.897827)" stroke-width="0"><tspan y="0" font-weight="400" stroke-width="0"></tspan></text><g transform="matrix(.16 0 0 0.16-10.240134-5.600668)"><g><circle r="100.09" transform="translate(183.27 227.91)" fill="#3f8bff"/><circle r="64.03" transform="translate(183.27 227.91)" fill="#1e77ff"/><circle r="27.97" transform="translate(183.27 227.91)" fill="#0061f4"/></g><g><path d="M241.59,158.2l-14.4-48c-.432462-1.415655-.047775-2.954404,1-4l50.52-50.52c.995658-.995646,2.441476-1.394461,3.806772-1.050062s2.448957,1.381281,2.853228,2.730062l13.16,43.84Z" fill="#0052cf"/><path d="M253.63,170.24l48,14.4c1.415655.432462,2.954404.047775,4-1l50.52-50.52c.995646-.995658,1.394461-2.441476,1.050062-3.806772s-1.381281-2.448957-2.730062-2.853228L310.63,113.3Z" transform="translate(-.658962 0)" fill="#0052cf"/><rect width="17.02" height="186.52" rx="8.51" ry="8.51" transform="matrix(.707107 0.707107-.707107 0.707107 303.340308 96.448458)" fill="#002e73"/></g></g></svg>