<svg id="eRDEn2hCo5G1" xmlns="http://www.w3.org/2000/svg" xmlns:xlink="http://www.w3.org/1999/xlink" viewBox="0 0 50 50" height="65px" width="65px" shape-rendering="geometricPrecision" text-rendering="geometricPrecision"><g transform="matrix(.022341 0 0-.020623-.769161 41.204492)"><path d="M1080,1463c-446-24-789-192-915-446-72-146-70-285,7-439c23-46,45-77,51-74c78,34,135,56,150,56c24,0,22,6-23,57-22,25-52,71-67,102-25,49-28,67-28,151s3,102,28,153c93,188,333,325,653,371c390,56,763,1,1104-165c68-33,127-56,132-51c13,13-19,37-127,90-131,66-310,127-460,157-112,23-352,47-420,43-16-1-55-3-85-5Z"/><path d="M1918,1159c-105-15-188-72-236-164-22-43-26-63-27-140c0-103,19-156,76-213c65-66,100-77,236-77c140,0,141,1,168,83c12,39,14,57,6,65-6,6-12,9-14,6-2-2-18-25-35-50-46-68-119-96-175-68-82,42-128,136-128,263c0,90,17,151,57,203c71,93,196,82,246-22c36-73,53-56,41,39-7,52-11,60-33,66-49,13-126,17-182,9Z"/><path d="M1376,1148c-51-14-113-76-122-123-15-84,25-140,161-222c99-60,126-102,103-161-19-50-57-68-108-53-42,12-96,67-112,113-9,26-31,37-41,21-7-11,14-126,24-139c16-19,125-37,180-30c105,14,168,69,177,155c8,90-31,139-171,213-79,43-111,81-103,127c8,51,38,76,90,76c50,0,78-20,107-77c11-21,26-38,35-38c13,0,14,9,8,58-3,31-8,60-11,64-14,25-145,35-217,16Z"/><path d="M402,1138c3-7,16-14,31-16c41-5,49-53,45-287-3-213-7-231-51-237-12-2-20-7-17-13c6-12,244-11,248,1c2,5-7,11-20,14-42,10-48,41-47,260c1,113,4,216,8,229c4,17,17,28,39,33c68,18,30,28-104,28-104,0-135-3-132-12Z" transform="translate(.000001 0.000001)"/><path d="M712,1138c3-7,13-15,24-17c43-8,44-13,44-260c0-251-2-261-47-261-40,0-26-28,20-40c121-29,205-56,327-106c353-145,475-182,621-191c217-13,387,55,451,182c26,51,50,137,40,147-4,4-23-14-42-39-70-95-161-143-311-163-165-23-336,6-636,106-105,35-199,64-208,64s-19,9-22,20c-3,12-14,20-27,20-39,0-46,18-46,122c0,97,0,98,24,98c21,0,32-14,68-81c57-108,102-158,153-169c64-15,115-12,115,5c0,8-4,15-9,15-20,0-73,65-126,154-30,50-55,97-55,104c0,6,14,19,30,27c72,37,95,154,43,216-45,53-73,59-264,59-132,0-170-3-167-12Zm298-46c19-19,31-44,35-75c14-90-32-157-106-157h-39v123c0,68,3,127,7,130c17,18,76,6,103-21Z"/><path d="M397,474c-81-19-121-42-107-59c9-10,20-9,63,8c74,29,199,29,288-1c36-12,130-61,210-107c194-115,232-129,341-130c49,0,88-3,88-6c0-15-62-32-130-37-125-7-206,21-418,145-129,76-190,97-284,97-44,1-82-4-88-10-16-16,53-65,185-129c165-81,303-114,570-136c134-11,382-6,500,9l50,7-92,13c-119,16-252,63-443,157C774,469,575,518,397,474Z"/></g></svg>