<svg id="Layer_1" data-name="Layer 1" xmlns="http://www.w3.org/2000/svg" viewBox="0 0 768.82 326.5" height="100px" width="100px"><defs><style>.iwm-logo-1{fill:#E2E0E0;shape-rendering: auto;}.iwm-logo-2{fill:#f8951d;shape-rendering: auto;}.iwm-logo-3{fill:#aad037;shape-rendering: auto;}</style></defs><title>iwm_logo_color</title><path class="iwm-logo-1" d="M430.17,443.49h0V349.82A24.78,24.78,0,0,0,405.4,325H394.86a24.78,24.78,0,0,0-24.78,24.78v88.88h.11v5.54c0,.28,0,.56,0,.84s0,.56,0,.84v1.27h0A56.09,56.09,0,0,1,331,498.55l-.38.13c-.49.15-1,.28-1.48.42s-.85.25-1.28.35l-.26.06a56.08,56.08,0,0,1-69.42-49.3c0-1.13.06-2.27.06-3.41,0-.92,0-1.84,0-2.76h0v-4.34c0-.07,0-.15,0-.23v-89.1c0-.12,0-.24,0-.35v-1.43a.77.77,0,0,1-.09-.31c0-.07,0-.14,0-.2,0-.41-.1-.81-.16-1.21s-.1-.79-.18-1.18-.19-.82-.28-1.23-.17-.73-.28-1.08-.26-.81-.4-1.21-.24-.68-.37-1-.33-.78-.51-1.17-.3-.64-.46-1-.4-.74-.61-1.11-.36-.61-.55-.91-.46-.7-.71-1-.42-.57-.64-.85-.52-.65-.79-1-.48-.54-.72-.8-.57-.59-.87-.88-.53-.49-.8-.73-.62-.54-.94-.79-.58-.44-.87-.65-.67-.48-1-.71-.61-.38-.92-.56-.72-.43-1.09-.62-.63-.31-.95-.46-.78-.37-1.18-.54-.62-.23-.94-.34-.86-.32-1.3-.45c-.28-.08-.56-.14-.84-.22-.49-.13-1-.26-1.49-.36l-.54-.08a24.86,24.86,0,0,0-4.26-.39H222.9a24.78,24.78,0,0,0-24.78,24.78v88.88h0v2.22c0,.61-.06,1.22-.08,1.83v5.9c0,.07,0,.14,0,.21a56.07,56.07,0,0,1-39,49.69l-.38.13c-.49.15-1,.28-1.48.42s-.85.25-1.29.35l-.26.06a56.07,56.07,0,0,1-69.51-50.43v89.5a24.7,24.7,0,0,1-1.5,8.44,115.53,115.53,0,0,0,57.61,15.32c1.13,0,2.25,0,3.37-.06l.74,0q1.7-.06,3.4-.17l1.34-.1q2.67-.2,5.31-.53l1.87-.24q1.41-.19,2.81-.42c.78-.13,1.56-.27,2.33-.42q2-.37,4-.81c.77-.17,1.54-.34,2.31-.53s1.64-.4,2.45-.62c1.08-.29,2.15-.6,3.22-.92s1.9-.58,2.84-.89,1.66-.55,2.48-.84,1.44-.51,2.16-.77q2-.73,3.87-1.52l1.85-.8q1.38-.6,2.74-1.24l1.71-.81q2-1,4-2l1.28-.71a116.62,116.62,0,0,0,30.08-23.92,116.57,116.57,0,0,0,28.12,22.54l0-.08a115.54,115.54,0,0,0,57.68,15.36c1.13,0,2.25,0,3.37-.06l.74,0q1.71-.06,3.4-.17l1.34-.1q2.67-.21,5.31-.53l1.87-.24c.94-.13,1.88-.27,2.81-.42s1.56-.27,2.33-.42q2-.37,4-.81c.77-.17,1.54-.34,2.31-.53s1.64-.4,2.45-.62c1.08-.29,2.16-.6,3.22-.92s1.9-.58,2.84-.89,1.66-.55,2.48-.84,1.44-.5,2.16-.77q1.95-.73,3.87-1.52c.62-.26,1.24-.53,1.86-.8q1.38-.6,2.74-1.24l1.71-.81q2-1,4-2l1.28-.71a116.07,116.07,0,0,0,60-101.63C430.22,445.33,430.19,444.41,430.17,443.49Z" transform="translate(-15.7 -236.39)"/><path class="iwm-logo-2" d="M75.77,447.21c-.09-1.31-.16-2.63-.16-4s.06-2.64.16-3.95V348.82A24.78,24.78,0,0,0,51,324H40.45A24.41,24.41,0,0,0,15.8,348.51V439.6c0,.61-.06,1.22-.08,1.84v5.9a116,116,0,0,0,58.44,97.86l0-.08.07,0a24.67,24.67,0,0,0,1.51-8.44Z" transform="translate(-15.7 -236.39)"/><circle class="iwm-logo-2" cx="30.05" cy="30.05" r="30.05"/><path class="iwm-logo-3" d="M440.51,349.82v86.82A56.07,56.07,0,0,1,510,386.94l.26.06,1.29.36c.49.14,1,.27,1.48.42l.38.13a56.06,56.06,0,0,1,39,49.69c0,.07,0,.14,0,.21v5.9c0,.61.05,1.22.08,1.83v2.22h0v88.88a24.78,24.78,0,0,0,24.78,24.78h10.54A24.75,24.75,0,0,0,592,561c.18,0,.36,0,.54-.08.5-.1,1-.23,1.49-.36.28-.07.56-.13.84-.22.44-.13.87-.29,1.3-.45s.63-.22.94-.34.79-.35,1.18-.54.64-.29.95-.46.73-.41,1.09-.63.62-.36.92-.56.68-.47,1-.71.59-.43.87-.65.63-.52.94-.79.54-.48.8-.73.58-.58.87-.88.49-.52.72-.8.53-.63.79-1,.43-.56.64-.85.48-.69.71-1,.37-.6.55-.91.42-.73.61-1.11.31-.63.46-1,.35-.77.52-1.17.25-.67.37-1,.28-.8.4-1.21.19-.72.28-1.09.21-.81.29-1.23.12-.78.18-1.18.13-.8.16-1.21c0-.07,0-.13,0-.21a.82.82,0,0,1,.08-.31V537c0-.12,0-.23,0-.35v-89.1c0-.08,0-.15,0-.23V443h0c0-.92,0-1.84,0-2.76,0-1.14,0-2.28-.06-3.41a56.07,56.07,0,0,1,69.42-49.3l.25.06,1.29.36c.5.14,1,.27,1.48.42l.38.13a56.09,56.09,0,0,1,39.13,51.36h0v1.27c0,.28,0,.56,0,.84s0,.56,0,.83v5.54h-.11V537.2A24.78,24.78,0,0,0,749.16,562H759.7a24.78,24.78,0,0,0,24.78-24.78V443.52h0c0-.92,0-1.84,0-2.76a116.07,116.07,0,0,0-60-101.63l-1.28-.71q-2-1.05-4-2l-1.71-.81q-1.36-.64-2.74-1.24c-.62-.27-1.23-.54-1.86-.8q-1.92-.8-3.87-1.52c-.71-.27-1.44-.52-2.16-.77s-1.65-.57-2.48-.84-1.89-.61-2.84-.89-2.14-.63-3.22-.92c-.81-.22-1.63-.42-2.45-.62s-1.54-.36-2.31-.53q-2-.44-4-.81c-.77-.15-1.55-.29-2.33-.42s-1.87-.29-2.81-.42l-1.87-.24q-2.64-.33-5.31-.53l-1.34-.1c-1.13-.07-2.26-.13-3.4-.17l-.74,0c-1.12,0-2.24-.06-3.37-.06A115.55,115.55,0,0,0,610.84,340l0-.08a116.66,116.66,0,0,0-28.12,22.54,116.65,116.65,0,0,0-30.08-23.92l-1.29-.71q-2-1.05-4-2c-.56-.28-1.14-.54-1.71-.81-.91-.42-1.82-.84-2.74-1.24l-1.85-.81c-1.28-.53-2.57-1-3.87-1.52l-2.15-.77q-1.23-.44-2.48-.84-1.41-.46-2.84-.89-1.6-.48-3.22-.92c-.81-.22-1.63-.42-2.45-.62l-2.31-.53q-2-.44-4-.81c-.77-.15-1.55-.29-2.33-.42s-1.87-.29-2.81-.42l-1.87-.24q-2.64-.32-5.31-.52l-1.34-.1q-1.69-.11-3.4-.17l-.74,0c-1.12,0-2.24-.06-3.37-.06-21,0-40.37,6.17-56.09,14.5Z" transform="translate(-15.7 -236.39)"/></svg>
