<svg id="eBknEMPViNW1" xmlns="http://www.w3.org/2000/svg" xmlns:xlink="http://www.w3.org/1999/xlink" viewBox="0 0 50 50" shape-rendering="geometricPrecision" text-rendering="geometricPrecision"><g transform="matrix(.09 0 0 0.09 1.96 1.959999)"><g><path d="M493.795,31.099l-.892,322.235c0,5.027,4.074,9.103,9.103,9.103s9.103-4.076,9.103-9.103L512,31.099h-18.205v0Z" fill="#666"/><path d="M84.496,317.376c-5.027,0-9.103-4.076-9.103-9.103v-163.693c0-5.027,4.076-9.103,9.103-9.103s9.103,4.076,9.103,9.103v163.694c0,5.026-4.076,9.102-9.103,9.102Z" fill="#666"/><path d="M293.251,362.437c-5.028,0-9.103-4.076-9.103-9.103v-208.754c0-5.027,4.074-9.103,9.103-9.103s9.103,4.076,9.103,9.103v208.755c-.001,5.026-4.075,9.102-9.103,9.102Z" fill="#666"/></g><g><circle r="104.378" transform="translate(188.875 144.576)" fill="#5dacd8"/><circle r="104.378" transform="translate(397.631 353.332)" fill="#5dacd8"/></g><polygon points="148.079,336.764 20.913,336.764 0,480.902 168.991,480.902" fill="#e88158"/><g><path d="M188.873,258.059c-62.573,0-113.481-50.907-113.481-113.481s50.908-113.48,113.481-113.48s113.481,50.907,113.481,113.481-50.908,113.48-113.481,113.48Zm0-208.754c-52.535,0-95.275,42.74-95.275,95.275s42.74,95.275,95.275,95.275s95.275-42.74,95.275-95.275-42.74-95.275-95.275-95.275Z" fill="#4c9cbf"/><path d="M397.627,466.814c-62.573,0-113.479-50.907-113.479-113.481s50.906-113.479,113.479-113.479s113.481,50.907,113.481,113.479-50.907,113.481-113.481,113.481Zm0-208.755c-52.534,0-95.274,42.74-95.274,95.274s42.74,95.275,95.274,95.275c52.535,0,95.275-42.74,95.275-95.275s-42.74-95.274-95.275-95.274Z" fill="#4c9cbf"/></g><g><circle r="42.516" transform="translate(188.875 144.576)" fill="#666"/><circle r="42.516" transform="translate(397.631 353.332)" fill="#666"/><rect width="62.542" height="18.205" rx="0" ry="0" transform="translate(53.223 380.907)" fill="#666"/><rect width="62.542" height="18.205" rx="0" ry="0" transform="translate(53.223 418.556)" fill="#666"/></g><path d="M112.987,345.866c-5.027,0-9.103-4.076-9.103-9.103c0-10.69-8.697-19.388-19.388-19.388s-19.389,8.697-19.389,19.388c0,5.027-4.076,9.103-9.103,9.103s-9.103-4.076-9.103-9.103c0-20.729,16.864-37.593,37.594-37.593c20.729,0,37.593,16.864,37.593,37.593.001,5.028-4.074,9.103-9.101,9.103Z" fill="#e88158"/></g></svg>