<svg id="eyBU34ORCmq1" xmlns="http://www.w3.org/2000/svg" xmlns:xlink="http://www.w3.org/1999/xlink" viewBox="0 0 50 50" shape-rendering="geometricPrecision" text-rendering="geometricPrecision"><path d="M23.181,3.077c.568,0,.923.463.792,1.035L20.314,20.093c-.13.572-.697,1.035-1.265,1.035h-18.23c-.568,0-.923-.463-.792-1.035L3.686,4.112c.13-.572.697-1.035,1.265-1.035h18.23Zm-8.375,9.345c.251-.394.227-.905-.09-1.243L9.122,5.228c-.38-.405-1.037-.407-1.466-.004s-.468,1.057-.088,1.461l4.662,4.96v.11L4.81,17.128c-.45.327-.533.977-.187,1.453s.991.597,1.44.27l8.229-5.909c.28-.197.438-.366.514-.52ZM12.01,16.821c-.246295-.001596-.483121.094784-.65831.26791s-.274368.408794-.27569.65509c0,.51.418.923.934.923h4.433c.246295.001596.483121-.094784.65831-.26791s.274368-.408794.27569-.65509c-.001322-.246296-.100501-.481964-.27569-.65509s-.412015-.269506-.65831-.26791h-4.433Z" transform="matrix(2 0 0 2 1 0.795)" fill="#0277bd"/></svg>