<svg id="eQUjWZgz0qc1" xmlns="http://www.w3.org/2000/svg" xmlns:xlink="http://www.w3.org/1999/xlink" viewBox="0 0 50 50" shape-rendering="geometricPrecision" text-rendering="geometricPrecision"><g transform="matrix(.45 0 0 0.45 1.46543 2.25509)"><rect width="48" height="48" rx="6.22" ry="6.22" transform="translate(.991001 1)" fill="#222"/><g transform="matrix(.09 0 0 0.09-12.89-1.6805)"><path d="M666.3,296.5c0-32.5-40.7-63.3-103.1-82.4c14.4-63.6,8-114.2-20.2-130.4-6.5-3.8-14.1-5.6-22.4-5.6v22.3c4.6,0,8.3.9,11.4,2.6c13.6,7.8,19.5,37.5,14.9,75.7-1.1,9.4-2.9,19.3-5.1,29.4-19.6-4.8-41-8.5-63.5-10.9-13.5-18.5-27.5-35.3-41.6-50c32.6-30.3,63.2-46.9,84-46.9v-22.3c-27.5,0-63.5,19.6-99.9,53.6-36.4-33.8-72.4-53.2-99.9-53.2v22.3c20.7,0,51.4,16.5,84,46.6-14,14.7-28,31.4-41.3,49.9-22.6,2.4-44,6.1-63.6,11-2.3-10-4-19.7-5.2-29-4.7-38.2,1.1-67.9,14.6-75.8c3-1.8,6.9-2.6,11.5-2.6v-22.3c-8.4,0-16,1.8-22.6,5.6-28.1,16.2-34.4,66.7-19.9,130.1-62.2,19.2-102.7,49.9-102.7,82.3c0,32.5,40.7,63.3,103.1,82.4-14.4,63.6-8,114.2,20.2,130.4c6.5,3.8,14.1,5.6,22.5,5.6c27.5,0,63.5-19.6,99.9-53.6c36.4,33.8,72.4,53.2,99.9,53.2c8.4,0,16-1.8,22.6-5.6c28.1-16.2,34.4-66.7,19.9-130.1c62-19.1,102.5-49.9,102.5-82.3ZM536.1,229.8c-3.7,12.9-8.3,26.2-13.5,39.5-4.1-8-8.4-16-13.1-24-4.6-8-9.5-15.8-14.4-23.4c14.2,2.1,27.9,4.7,41,7.9ZM490.3,336.3c-7.8,13.5-15.8,26.3-24.1,38.2-14.9,1.3-30,2-45.2,2-15.1,0-30.2-.7-45-1.9-8.3-11.9-16.4-24.6-24.2-38-7.6-13.1-14.5-26.4-20.8-39.8c6.2-13.4,13.2-26.8,20.7-39.9c7.8-13.5,15.8-26.3,24.1-38.2c14.9-1.3,30-2,45.2-2c15.1,0,30.2.7,45,1.9c8.3,11.9,16.4,24.6,24.2,38c7.6,13.1,14.5,26.4,20.8,39.8-6.3,13.4-13.2,26.8-20.7,39.9Zm32.3-13c5.4,13.4,10,26.8,13.8,39.8-13.1,3.2-26.9,5.9-41.2,8c4.9-7.7,9.8-15.6,14.4-23.7c4.6-8,8.9-16.1,13-24.1ZM421.2,430c-9.3-9.6-18.6-20.3-27.8-32c9,.4,18.2.7,27.5.7c9.4,0,18.7-.2,27.8-.7-9,11.7-18.3,22.4-27.5,32Zm-74.4-58.9c-14.2-2.1-27.9-4.7-41-7.9c3.7-12.9,8.3-26.2,13.5-39.5c4.1,8,8.4,16,13.1,24s9.5,15.8,14.4,23.4ZM420.7,163c9.3,9.6,18.6,20.3,27.8,32-9-.4-18.2-.7-27.5-.7-9.4,0-18.7.2-27.8.7c9-11.7,18.3-22.4,27.5-32Zm-74,58.9c-4.9,7.7-9.8,15.6-14.4,23.7-4.6,8-8.9,16-13,24-5.4-13.4-10-26.8-13.8-39.8c13.1-3.1,26.9-5.8,41.2-7.9ZM256.2,347.1c-35.4-15.1-58.3-34.9-58.3-50.6s22.9-35.6,58.3-50.6c8.6-3.7,18-7,27.7-10.1c5.7,19.6,13.2,40,22.5,60.9-9.2,20.8-16.6,41.1-22.2,60.6-9.9-3.1-19.3-6.5-28-10.2ZM310,490c-13.6-7.8-19.5-37.5-14.9-75.7c1.1-9.4,2.9-19.3,5.1-29.4c19.6,4.8,41,8.5,63.5,10.9c13.5,18.5,27.5,35.3,41.6,50-32.6,30.3-63.2,46.9-84,46.9-4.5-.1-8.3-1-11.3-2.7Zm237.2-76.2c4.7,38.2-1.1,67.9-14.6,75.8-3,1.8-6.9,2.6-11.5,2.6-20.7,0-51.4-16.5-84-46.6c14-14.7,28-31.4,41.3-49.9c22.6-2.4,44-6.1,63.6-11c2.3,10.1,4.1,19.8,5.2,29.1Zm38.5-66.7c-8.6,3.7-18,7-27.7,10.1-5.7-19.6-13.2-40-22.5-60.9c9.2-20.8,16.6-41.1,22.2-60.6c9.9,3.1,19.3,6.5,28.1,10.2c35.4,15.1,58.3,34.9,58.3,50.6-.1,15.7-23,35.6-58.4,50.6Z" fill="#61dafb"/><circle r="45.7" transform="translate(420.9 296.5)" fill="#61dafb"/></g></g><g transform="matrix(.45 0 0 0.45 25.950619 1.940729)"><rect width="48" height="48" rx="6.22" ry="6.22" transform="translate(.55418 1.69858)" fill="#4834ae"/><g transform="matrix(.07 0 0 0.07 3.55418 9.02808)"><path d="M0,259.8L0,0L225,129.9v86.6L75,129.9v173.2Z" fill="#00b0ff"/><path d="M225,129.9L450,0v259.8L300,346.4l-75-43.3l150-86.6v-86.6L225,216.5Z" fill="#0081cb"/><path d="M225,303.1v86.6l150,86.6v-86.6Z" fill="#00b0ff"/><path d="M375,476.3L600,346.4v-173.2l-75,43.3v86.6L375,389.7ZM525,129.9v-86.6L600,0v86.6Z" fill="#0081cb"/></g></g><path d="M23.181,3.077c.568,0,.923.463.792,1.035L20.314,20.093c-.13.572-.697,1.035-1.265,1.035h-18.23c-.568,0-.923-.463-.792-1.035L3.686,4.112c.13-.572.697-1.035,1.265-1.035h18.23Zm-8.375,9.345c.251-.394.227-.905-.09-1.243L9.122,5.228c-.38-.405-1.037-.407-1.466-.004s-.468,1.057-.088,1.461l4.662,4.96v.11L4.81,17.128c-.45.327-.533.977-.187,1.453s.991.597,1.44.27l8.229-5.909c.28-.197.438-.366.514-.52ZM12.01,16.821c-.246295-.001596-.483121.094784-.65831.26791s-.274368.408794-.27569.65509c0,.51.418.923.934.923h4.433c.246295.001596.483121-.094784.65831-.26791s.274368-.408794.27569-.65509c-.001322-.246296-.100501-.481964-.27569-.65509s-.412015-.269506-.65831-.26791h-4.433Z" transform="matrix(1.25 0 0 1.25 10 21.15375)" fill="#0277bd"/></svg>