<svg id="ebswDIL91Ek1" xmlns="http://www.w3.org/2000/svg" xmlns:xlink="http://www.w3.org/1999/xlink" height="65px" width="65px" viewBox="0 0 50 50" shape-rendering="geometricPrecision" text-rendering="geometricPrecision"><g transform="matrix(.002181 0 0-.001815-3.713635 43.612825)"><g><path d="M1705,19781c11-10,544-454,1185-986s1177-979,1192-993l26-27-809-3475c-445-1911-810-3487-812-3502-2-24,99-102,1251-962l1253-936h1819c1582,0,1820-2,1820-14c0-8-94-418-210-911-115-492-210-902-210-909c0-8,554-447,1232-975l1232-961h1739h1740l-6-33c-3-17-231-999-507-2182-276-1182-504-2162-507-2177l-5-28h2295h2295l11,48c11,54,848,3651,887,3815l26,107h1577h1577l405,1740l404,1740l599,2l600,3l411,1770l412,1770-3044,3-3045,2l7,28c3,15,136,581,295,1257c269,1148,287,1231,272,1247-9,9-590,437-1291,952l-1273,936h-1781-1780l-64-35c-35-19-63-30-63-25s193,841,430,1858c236,1017,430,1854,430,1861c0,8-1495,11-6017,11-5906,0-6017,0-5998-19Zm6292-893c-4-13-391-1679-862-3703s-859-3690-862-3702l-5-23h944h943l773,3323c0,0,773,3327,772,3334c0,7-210,187-467,400l-467,388l1939,3c1066,1,1940,0,1943-2c2-3-236-1033-528-2291-293-1257-530-2288-527-2291c2-3,367,193,810,435l804,441h1529h1529l925-680c509-374,926-686,927-692c1-7-107-476-240-1043l-242-1030-1373-3-1374-2l7,32c4,18,97,413,206,878c109,464,197,846,195,847-1,2-689,2-1529,1l-1526-3l465-385c256-212,470-390,475-397c7-7-184-837-566-2470-317-1352-579-2466-581-2476-5-16,43-17,957-15l963,3l242,1035c134,569,251,1068,260,1107l16,73l861,2l861,3-470,395-470,395l4120,3c2265,1,4120,1,4122,0c2-3-193-845-357-1545l-31-133-2744-2-2744-3l475-394c261-217,475-396,475-399c0-2-52-227-115-499-63-271-115-496-115-498c0-3,709-5,1575-5s1575-3,1575-7c0-5-87-381-194-838l-193-830-1579-5-1578-5-461-1980-461-1980-1382-3c-760-1-1382,1-1382,5c1,5,268,1153,594,2553s591,2547,589,2549c-1,2-275-152-608-342l-605-347h-1635-1635l-873,681c-479,374-873,684-875,688-1,5,164,720,368,1589c203,869,370,1585,370,1590c0,6-327-181-728-414l-727-424h-1615l-1615,1-915,684c-673,502-914,688-913,702c1,10,365,1576,808,3480c443,1903,805,3466,805,3471c0,6-209,184-465,397-256,212-465,388-465,391c0,2,873,4,1941,4h1941l-5-22Z" stroke="#000"/></g><path d="M19155,4489c-193-25-341-154-399-348-21-70-21-202,0-272c70-239,303-391,535-349c327,58,497,418,342,724-58,115-207,226-321,241-26,3-58,7-72,9-14,1-52-1-85-5Zm176-114c91-33,158-98,207-203c24-51,27-68,27-167-1-133-22-197-91-274-189-210-518-124-601,158-25,87-15,210,24,293c33,70,99,145,152,172c86,45,191,53,282,21Z"/><path d="M19140,4253c-25-1-60-6-78-9l-32-5l2-242l3-242l52-3l52-3l3,98l3,98l50-3c63-3,81-21,101-98c24-91,27-94,88-94h54l-14,48c-7,26-18,66-24,90-6,23-24,57-40,75l-29,33l30,18c81,48,76,166-9,213-39,22-130,33-212,26Zm146-108c20-27,17-72-6-95-15-15-33-20-75-20h-55v71v71l61-4c45-3,65-10,75-23Z"/></g></svg>