<svg class="windowIcons" xmlns="http://www.w3.org/2000/svg" xmlns:xlink="http://www.w3.org/1999/xlink" viewBox="0 0 50 50" shape-rendering="geometricPrecision" text-rendering="geometricPrecision"><text dx="0" dy="0" font-family="&quot;ejRZVFoPBNp1:::Roboto&quot;" font-size="2.5" font-weight="400" transform="translate(28.349191 28.897827)" stroke-width="0"><tspan y="0" font-weight="400" stroke-width="0"></tspan></text><path d="M418.609,94.182h-128.326v-39.125c0-5.523-4.478-10-10-10h-118.566c-5.523,0-10,4.477-10,10v39.126h-128.326C10.493,94.182,0,104.675,0,117.573v74.391v181.589c0,12.897,10.493,23.39,23.391,23.39h395.219c12.897,0,23.391-10.493,23.391-23.39v-181.589-74.391c-.001-12.898-10.494-23.391-23.392-23.391ZM171.717,65.057h98.566v29.126h-98.566v-29.126ZM20,117.573c0-1.87,1.521-3.391,3.391-3.391h395.219c1.869,0,3.391,1.521,3.391,3.391v74.391c0,17.783-14.468,32.251-32.251,32.251h-136.965v-33.234c0-5.523-4.478-10-10-10h-43.57c-5.523,0-10,4.477-10,10v33.234h-136.964C34.468,224.215,20,209.747,20,191.964v-74.391ZM209.215,244.215h23.57v11.449c0,6.499-5.287,11.785-11.785,11.785-6.499,0-11.785-5.287-11.785-11.785v-11.449Zm0-20v-23.234h23.57v23.234h-23.57ZM418.609,376.943h-395.218c-1.87,0-3.391-1.521-3.391-3.39v-140.525c8.89,6.997,20.087,11.187,32.251,11.187h136.963v11.449c0,17.526,14.259,31.785,31.785,31.785s31.785-14.259,31.785-31.785v-11.449h136.964c12.164,0,23.362-4.19,32.251-11.187v140.525c.001,1.869-1.52,3.39-3.39,3.39Z" transform="matrix(.1 0 0 0.1 2.89995 2.9)" fill="#0061f4"/></svg>