<svg id="windowSortBtn" xmlns="http://www.w3.org/2000/svg" xmlns:xlink="http://www.w3.org/1999/xlink" viewBox="0 0 50 50" shape-rendering="geometricPrecision" text-rendering="geometricPrecision"><line x1="22.83" y1="50" x2="77.17" y2="50" transform="matrix(.299999-.000689 0.000689 0.299999 5.293602 3.039424)" fill="#6f6a6e" stroke="#6f6a6e" stroke-width="7" stroke-linecap="round" stroke-miterlimit="10"/><line x1="22.83" y1="50" x2="77.17" y2="50" transform="matrix(.3 0 0 0.3 5.328015 14.525484)" fill="none" stroke="#6f6a6e" stroke-width="7" stroke-linecap="round" stroke-miterlimit="10"/><line x1="22.83" y1="50" x2="77.17" y2="50" transform="matrix(.3 0 0 0.3 5.327972 8.575969)" fill="none" stroke="#6f6a6e" stroke-width="7" stroke-linecap="round" stroke-miterlimit="10"/><path d="M3.73556,11.61339c0-1.97442,1.60058-3.575,3.575-3.575s3.575,1.60058,3.575,3.575-1.60058,3.575-3.575,3.575-3.575-1.60058-3.575-3.575Z" transform="matrix(.451027 0 0 0.45 4.013304 12.797619)" fill="#6f6a6e" stroke="#6f6a6e"/><path d="M3.73556,11.61339c0-1.97442,1.60058-3.575,3.575-3.575s3.575,1.60058,3.575,3.575-1.60058,3.575-3.575,3.575-3.575-1.60058-3.575-3.575Z" transform="matrix(.451027 0 0 0.45 4.013304 18.349944)" fill="#6f6a6e"/><path d="M3.73556,11.61339c0-1.97442,1.60058-3.575,3.575-3.575s3.575,1.60058,3.575,3.575-1.60058,3.575-3.575,3.575-3.575-1.60058-3.575-3.575Z" transform="matrix(.451027 0 0 0.45 4.013304 24.183411)" fill="#6f6a6e"/><rect width="64" height="21.11" rx="10.56" ry="10.56" transform="matrix(.106066 0.106066-.106066 0.106066 34.694077 19.06233)" fill="#6f6a6e"/><rect width="64" height="21.11" rx="10.56" ry="10.56" transform="matrix(-.106066 0.106066-.106066-.106066 45.995941 21.301383)" fill="#6f6a6e"/></svg>