<svg className="windowIcons" xmlns="http://www.w3.org/2000/svg" xmlns:xlink="http://www.w3.org/1999/xlink" viewBox="0 0 50 50" shape-rendering="geometricPrecision" text-rendering="geometricPrecision"><path d="M15.497839,14.602831c-.277444,0-.502161.22961-.502161.513096c0,.227045.143743.418815.343352.4868.025108.00449.034524-.010903.034524-.024372c0-.012186-.000628-.052592-.000628-.095564-.126168.023731-.158808-.031427-.168851-.060289-.005649-.014752-.03013-.060289-.051471-.072475-.017576-.009621-.042684-.033351-.000628-.033993.039545-.000641.067792.037199.077207.052592.045194.077606.11738.055799.146254.04233.004394-.033351.017576-.055799.032013-.068627-.111731-.012827-.228483-.057082-.228483-.253341c0-.055799.019459-.101978.051471-.137895-.005022-.012827-.022597-.06542.005022-.13597c0,0,.042056-.013469.138094.052592.040173-.011545.082856-.017317.12554-.017317s.085367.005772.12554.017317c.096038-.066702.138094-.052592.138094-.052592.027619.070551.010043.123143.005022.13597.032013.035917.051471.081454.051471.137895c0,.196901-.11738.240514-.229111.253341.018203.016034.033896.04682.033896.094923c0,.068627-.000628.123784-.000628.141101c0,.013469.009416.029503.034524.024372.198353-.067985.342097-.260396.342097-.4868c0-.283486-.224717-.513096-.502161-.513096Z" transform="matrix(45 0 0 45-672.402777-654.645035)" clip-rule="evenodd" fill="#0061f4" fill-rule="evenodd"/></svg>