<svg cache-id="483db9d25a974ee0916881a4d3cf4088" className="windowIcons" xmlns="http://www.w3.org/2000/svg" xmlns:xlink="http://www.w3.org/1999/xlink" viewBox="0 0 50 50" shape-rendering="geometricPrecision" text-rendering="geometricPrecision"><path d="M75.19,55.45v17.81c0,.441828-.358172.8-.8.8h-9.19c-.441828,0-.8-.358172-.8-.8v-16.56c0-4.36-1.56-7.34-5.46-7.34-2.490083.014756-4.702815,1.591278-5.53,3.94-.277758.847752-.399726,1.73879-.36,2.63v17.33c0,.441828-.358172.8-.8.8h-9.19c-.212993.002714-.418057-.0807-.568678-.231322s-.234036-.355685-.231322-.568678c0-4.41.11-25.81,0-30.84-.005456-.214711.076746-.422388.227672-.575201s.357566-.237587.572328-.234799h9.17c.441828,0,.8.358172.8.8v3.8l-.07.11h.07v-.11c1.989135-3.457243,5.734687-5.522692,9.72-5.36c7.1,0,12.42,4.64,12.42,14.6ZM26.31,74.06h9.19c.441828,0,.8-.358172.8-.8v-30.85c0-.441828-.358172-.8-.8-.8h-9.19c-.441828,0-.8.358172-.8.8v30.85c0,.441828.358172.8.8.8Zm4.27-48.12c-3.186683,0-5.77,2.583317-5.77,5.77s2.583317,5.77,5.77,5.77s5.77-2.583317,5.77-5.77c0-1.530299-.607909-2.997921-1.689994-4.080006s-2.549707-1.689994-4.080006-1.689994Z" transform="matrix(.9 0 0 0.9-20-20.000027)" fill="#0061f4"/></svg>