<svg className="windowIcons" xmlns="http://www.w3.org/2000/svg" xmlns:xlink="http://www.w3.org/1999/xlink" viewBox="0 0 50 50" shape-rendering="geometricPrecision" text-rendering="geometricPrecision"><g transform="matrix(.09316 0 0 0.084398 1.151134 3.394154)"><path d="M477.832,408.28h-335.757c-7.691,0-13.929-6.236-13.929-13.929s6.237-13.929,13.929-13.929h335.757c3.481,0,6.311-3.385,6.311-7.545v-233.756c0-4.16-2.83-7.545-6.311-7.545h-315.517c-3.481,0-6.311,3.385-6.311,7.545v167.826c0,7.693-6.237,13.929-13.929,13.929-7.691,0-13.929-6.236-13.929-13.929v-167.826c0-19.521,15.328-35.402,34.168-35.402h315.516c18.84,0,34.168,15.881,34.168,35.402v233.755c.002,19.522-15.326,35.404-34.166,35.404Z" fill="#0061f4"/><g><path d="M320.073,301.884c-3.01,0-6.02-.974-8.531-2.918L141.845,167.473c-8.577-6.647-13.699-17.245-13.699-28.35c0-19.521,15.328-35.402,34.168-35.402h315.516c18.84,0,34.168,15.881,34.168,35.402c0,11.105-5.122,21.704-13.7,28.35L328.604,298.966c-2.511,1.946-5.521,2.918-8.531,2.918ZM162.315,131.576c-3.479,0-6.311,3.385-6.311,7.545c0,2.555,1.085,4.921,2.904,6.331L320.073,270.335L481.237,145.452c1.819-1.41,2.905-3.776,2.905-6.331c0-4.16-2.832-7.545-6.311-7.545h-315.516v0Z" fill="#0061f4"/><path d="M140.681,195.17h-126.752C6.237,195.17,0,188.934,0,181.242s6.237-13.929,13.929-13.929h126.752c7.691,0,13.929,6.236,13.929,13.929s-6.238,13.928-13.929,13.928Z" fill="#0061f4"/><path d="M140.681,258.545h-84.962c-7.691,0-13.929-6.236-13.929-13.929s6.237-13.929,13.929-13.929h84.962c7.691,0,13.929,6.236,13.929,13.929s-6.238,13.929-13.929,13.929Z" fill="#0061f4"/><path d="M140.681,321.921h-43.172c-7.691,0-13.929-6.236-13.929-13.929s6.237-13.929,13.929-13.929h43.172c7.691,0,13.929,6.236,13.929,13.929s-6.238,13.929-13.929,13.929Z" transform="translate(-1.064212 0)" fill="#0061f4"/></g></g></svg>