<svg className="windowIcons" xmlns="http://www.w3.org/2000/svg" xmlns:xlink="http://www.w3.org/1999/xlink" viewBox="0 0 50 50" shape-rendering="geometricPrecision" text-rendering="geometricPrecision"><path d="M38.84,74.44c22.69,0,35.1-18.8,35.1-35.1q0-.8,0-1.59c2.413036-1.748075,4.495537-3.911844,6.15-6.39-2.253534.99423-4.643457,1.644802-7.09,1.93c2.577016-1.53979,4.506748-3.963504,5.43-6.82-2.420119,1.43859-5.068206,2.453183-7.83,3-3.829768-4.037517-9.886791-5.014964-14.792183-2.387075s-7.447335,8.211924-6.207817,13.637075c-9.941168-.481581-19.207159-5.172762-25.48-12.9-3.273133,5.637754-1.600659,12.848656,3.82,16.47-1.959723-.0586-3.876753-.586727-5.59-1.54c0,.05,0,.1,0,.16.003028,5.872212,4.143726,10.928882,9.9,12.09-1.816243.494603-3.721671.566442-5.57.21c1.614374,5.02471,6.2433,8.468277,11.52,8.57-4.36989,3.428528-9.765661,5.288167-15.32,5.28-.982481.000876-1.964168-.055888-2.94-.17c5.641045,3.62317,12.20562,5.546372,18.91,5.54" transform="matrix(.75 0 0 0.75-12.51125-12.522078)" fill="rgba(0,0,0,0)" stroke="#0061f4"/></svg>