<?xml version="1.0" encoding="iso-8859-1"?>
<!-- Generator: Adobe Illustrator 19.0.0, SVG Export Plug-In . SVG Version: 6.00 Build 0)  -->
<svg version="1.1" id="Layer_1" xmlns="http://www.w3.org/2000/svg" xmlns:xlink="http://www.w3.org/1999/xlink" x="0px" y="0px"
	 viewBox="0 0 496.2 496.2" style="enable-background:new 0 0 496.2 496.2;" xml:space="preserve">
<path style="fill:#32BEA6;" d="M496.2,248.1C496.2,111.1,385.1,0,248.1,0S0,111.1,0,248.1s111.1,248.1,248.1,248.1
	S496.2,385.1,496.2,248.1z"/>
<polygon style="fill:#433DC9;" points="214.1,233.5 349.8,253.8 349.8,146.4 214.1,110.9 "/>
<polygon style="fill:#0C0C0C;" points="125.3,414.5 221.5,414.5 213.9,395.9 143.9,395.9 "/>
<polygon style="fill:#242328;" points="370.9,414.5 221.5,414.5 213.9,395.9 353.1,395.9 "/>
<polygon style="fill:#0C0C0C;" points="214.1,81.7 185.3,86.8 172.6,81.7 147.3,81.7 147.3,396.5 214.1,396.5 "/>
<g>
	<rect x="143.9" y="207.9" style="fill:#1E1D22;" width="28.7" height="188.5"/>
	<rect x="185.3" y="207.9" style="fill:#1E1D22;" width="28.7" height="188.5"/>
</g>
<polygon style="fill:#2F2E35;" points="214.1,207.9 353.1,228.2 353.1,396.5 214.1,396.5 "/>
<g>
	<rect x="143.9" y="81.7" style="fill:#1E1D22;" width="28.7" height="122.6"/>
	<rect x="185.3" y="81.7" style="fill:#1E1D22;" width="28.7" height="122.6"/>
</g>
<polygon style="fill:#2F2E35;" points="214.1,204.3 353.1,224.6 353.1,117.2 214.1,81.7 "/>
<rect x="192.9" y="359.7" style="fill:#131316;" width="12.7" height="27.9"/>
<g>
</g>
<g>
</g>
<g>
</g>
<g>
</g>
<g>
</g>
<g>
</g>
<g>
</g>
<g>
</g>
<g>
</g>
<g>
</g>
<g>
</g>
<g>
</g>
<g>
</g>
<g>
</g>
<g>
</g>
</svg>
