<?xml version="1.0" encoding="iso-8859-1"?>
<!-- Generator: Adobe Illustrator 19.0.0, SVG Export Plug-In . SVG Version: 6.00 Build 0)  -->
<svg version="1.1" id="Layer_1" xmlns="http://www.w3.org/2000/svg" xmlns:xlink="http://www.w3.org/1999/xlink" x="0px" y="0px"
	 viewBox="0 0 512 512" style="enable-background:new 0 0 512 512;" xml:space="preserve">
<path style="fill:#797882;" d="M483.587,161.1H28.413C12.721,161.1,0,148.378,0,132.687s12.721-28.413,28.413-28.413h455.174
	c15.691,0,28.413,12.722,28.413,28.413S499.278,161.1,483.587,161.1z"/>
<path style="fill:#3E3E42;" d="M483.587,407.726H28.413C12.721,407.726,0,395.005,0,379.313S12.721,350.9,28.413,350.9h455.174
	c15.691,0,28.413,12.722,28.413,28.413C512,395.004,499.278,407.726,483.587,407.726z"/>
<circle style="fill:#A6E7ED;" cx="166.688" cy="132.689" r="75.677"/>
<path style="fill:#FFFFFF;" d="M91.016,132.687c0,41.793,33.88,75.673,75.673,75.673V57.014
	C124.895,57.014,91.016,90.894,91.016,132.687z"/>
<path style="fill:#00655B;" d="M166.689,236.773c-57.393,0-104.086-46.693-104.086-104.086S109.296,28.601,166.689,28.601
	s104.086,46.693,104.086,104.086S224.083,236.773,166.689,236.773z M166.689,85.427c-26.06,0-47.26,21.201-47.26,47.26
	s21.201,47.26,47.26,47.26s47.26-21.201,47.26-47.26S192.748,85.427,166.689,85.427z"/>
<path style="fill:#4AB6BF;" d="M166.689,179.947c-26.06,0-47.26-21.201-47.26-47.26s21.201-47.26,47.26-47.26V28.601
	c-57.393,0-104.086,46.693-104.086,104.086s46.693,104.086,104.086,104.086V179.947z"/>
<circle style="fill:#A6E7ED;" cx="348.889" cy="379.315" r="75.677"/>
<path style="fill:#FFFFFF;" d="M273.215,379.313c0,41.793,33.88,75.673,75.673,75.673V303.64
	C307.095,303.64,273.215,337.52,273.215,379.313z"/>
<path style="fill:#005A95;" d="M348.888,483.399c-57.393,0-104.086-46.693-104.086-104.086s46.693-104.086,104.086-104.086
	c57.393,0,104.086,46.693,104.086,104.086S406.281,483.399,348.888,483.399z M348.888,332.053c-26.06,0-47.26,21.202-47.26,47.26
	c0,26.059,21.202,47.26,47.26,47.26c26.059,0,47.26-21.201,47.26-47.26C396.148,353.253,374.948,332.053,348.888,332.053z"/>
<path style="fill:#31AAEF;" d="M348.888,426.573c-26.06,0-47.26-21.201-47.26-47.26c0-26.06,21.201-47.26,47.26-47.26v-56.826
	c-57.393,0-104.086,46.693-104.086,104.086s46.693,104.086,104.086,104.086V426.573z"/>
<g>
</g>
<g>
</g>
<g>
</g>
<g>
</g>
<g>
</g>
<g>
</g>
<g>
</g>
<g>
</g>
<g>
</g>
<g>
</g>
<g>
</g>
<g>
</g>
<g>
</g>
<g>
</g>
<g>
</g>
</svg>
