<?xml version="1.0" encoding="iso-8859-1"?>
<!-- Generator: Adobe Illustrator 19.0.0, SVG Export Plug-In . SVG Version: 6.00 Build 0)  -->
<svg version="1.1" id="Layer_1" xmlns="http://www.w3.org/2000/svg" xmlns:xlink="http://www.w3.org/1999/xlink" x="0px" y="0px"
	 viewBox="0 0 496 496" style="enable-background:new 0 0 496 496;" xml:space="preserve">
<g>
	<g>
		<g>
			<rect x="240" width="16" height="16"/>
			<rect x="191.008" y="9.745" transform="matrix(0.3828 0.9238 -0.9238 0.3828 139.2185 -172.8973)" width="16" height="16"/>
			<rect x="149.497" y="37.493" transform="matrix(0.7071 0.7071 -0.7071 0.7071 78.2981 -98.0428)" width="16" height="16"/>
			<rect x="121.736" y="79.044" transform="matrix(0.9238 0.3828 -0.3828 0.9238 43.2037 -43.0339)" width="15.999" height="16"/>
			<rect x="112" y="128" width="16" height="16"/>
			<rect x="121.729" y="176.96" transform="matrix(-0.3828 -0.9238 0.9238 -0.3828 8.5198 375.6119)" width="16" height="16"/>
			<rect x="358.226" y="177.008" transform="matrix(0.9238 0.3828 -0.3828 0.9238 98.7185 -126.1018)" width="16" height="16"/>
			<rect x="368" y="128" width="16" height="16"/>
			<rect x="358.246" y="79.023" transform="matrix(0.3828 0.9238 -0.9238 0.3828 306.4378 -284.6385)" width="16" height="16"/>
			<rect x="330.487" y="37.519" transform="matrix(0.7071 0.7071 -0.7071 0.7071 131.3273 -226.0143)" width="16" height="16"/>
			<rect x="288.969" y="9.733" transform="matrix(0.9238 0.3828 -0.3828 0.9238 29.4095 -112.3324)" width="16" height="16"/>
			<path d="M327.696,355.616l0.304-0.304V256h16v-16h-16v-16h16v-16h-16v-5.696c15.504-18.68,24-42.104,24-66.304
				c0-57.344-46.656-104-104-104S144,78.656,144,136c0,24.2,8.504,47.624,24,66.304V208h-16v16h16v16h-16v16h16v99.312l0.304,0.304
				C87.08,363.272,0,384.968,0,424c0,46.768,127.776,72,248,72s248-25.232,248-72C496,384.968,408.92,363.272,327.696,355.616z
				 M160,136c0-48.52,39.48-88,88-88s88,39.48,88,88c0,21.328-7.816,41.944-22.008,58.064L312,196.328V208h-56v-41.136
				c13.768-3.576,24-15.992,24-30.864c0-17.648-14.352-32-32-32s-32,14.352-32,32c0,14.872,10.232,27.288,24,30.864V208h-56v-11.672
				l-1.992-2.264C167.816,177.944,160,157.328,160,136z M248,412.688L195.312,360h105.376L248,412.688z M282.752,400.56
				c90.704,2.768,141.096,15.2,148.744,23.432C423.232,432.616,362.712,448,248,448S72.768,432.616,64.496,423.992
				c7.656-8.24,58.04-20.664,148.744-23.432L248,435.312L282.752,400.56z M184,344v-88h32v88H184z M232,344v-88h32v88H232z M280,344
				v-88h32v88H280z M184,240v-16h128v16H184z M248,152c-8.824,0-16-7.176-16-16c0-8.824,7.176-16,16-16c8.824,0,16,7.176,16,16
				C264,144.824,256.824,152,248,152z M248,480c-143.744,0-232-32.616-232-56c0-20.288,62.472-45.664,167.12-53.568l14.664,14.664
				C141.68,387.552,48,395.864,48,424c0,38.872,179.528,40,200,40s200-1.128,200-40c0-28.136-93.68-36.448-149.784-38.904
				l14.664-14.664C417.528,378.336,480,403.712,480,424C480,447.384,391.744,480,248,480z"/>
			<rect x="400" y="128" width="48" height="16"/>
			<rect x="48" y="128" width="48" height="16"/>
		</g>
	</g>
</g>
<g>
</g>
<g>
</g>
<g>
</g>
<g>
</g>
<g>
</g>
<g>
</g>
<g>
</g>
<g>
</g>
<g>
</g>
<g>
</g>
<g>
</g>
<g>
</g>
<g>
</g>
<g>
</g>
<g>
</g>
</svg>
