<svg cache-id="faf51ca8075f429dbdddc97a98ee2bf0" id="e1UhBfJ06MT1" viewbox='0 0 1000 1000' preserveAspectRatio="none" xmlns="http://www.w3.org/2000/svg" xmlns:xlink="http://www.w3.org/1999/xlink" shape-rendering="geometricPrecision" text-rendering="geometricPrecision"><path id="e1UhBfJ06MT2" d="M-2.230469,325L35.5,332.2C71,339.3,142,353.7,213.2,341c71.1-12.7,142.5-52.3,213.6-59.5c71.2-7.2,135.540155,62.367325,206.540155,74.967325c71,12.7,140.908206,3.080473,212.108206,24.780473c71.1,21.6,147.922869,60.954011,219.022869,75.254011c71.2,14.3,158.184266,16.683756,229.184266-1.316244s135.011435-37.505899,206.211435-68.005899c71.1-30.5,139.498913-90.011979,210.598913-100.911979C1781.665844,275.467687,1849,264,1884.5,273l33.269531,9L1920,0h-35.5C1849,0,1778,0,1706.8,0c-71.1,0-142.5,0-213.6,0C1422,0,1351,0,1280,0s-142,0-213.2,0C995.7,0,924.3,0,853.2,0C782,0,711,0,640,0s-142,0-213.2,0C355.7,0,284.3,0,213.2,0C142,0,71,0,35.5,0L-2.230469,1.81366Z" transform="translate(2.230469-1.81366)" fill="#eec5c1"/><path id="e1UhBfJ06MT3" d="M3.563216,549.999999l33.404303.034005c35.5,3.6,104.673715,13.364757,175.873715,33.164757c71.1,19.8,147.9884,51.29956,219.0884,60.29956c71.2,9,148.763629-6.212206,219.763629-18.812206c71-12.7,134.90201-24.051505,206.10201-7.851505c71.1,16.1,142.853516,64.992309,213.953516,90.292309c71.2,25.3,148.842144,22.740134,219.842144,13.740134s134.90201-30.086288,206.10201-58.886288c71.1-28.8,138.927762-62.323413,210.027762-56.923413c71.2,5.3,135.270237,37.386289,170.770237,58.886289l45.072274,23.631281v-407.646201l-47.785792-17.38409C1840.277424,253.544631,1778,244,1706.8,254.8c-71.1,10.9-142.5,50.5-213.6,81-71.2,30.5-142.2,51.9-213.2,69.9s-142,32.6-213.2,18.3c-71.1-14.3-142.5-57.7-213.6-79.3C782,323,711,323,640,310.3c-71-12.6-142-38-213.2-30.8-71.1,7.2-142.5,46.8-213.6,59.5C142,351.7,71,337.3,35.5,330.2L3.563216,323Z" transform="translate(-3.563216 0.000001)" fill="#f78fa4"/><path id="e1UhBfJ06MT4" d="M-4.325983,744.422826L41.24629,728.813329c35.5,1.9,93.309661,4.131923,164.509661,13.131923c71.1,9,151.212789,15.059437,222.312789,27.559437c71.2,12.5,136.614422,27.484845,207.614422,23.884845c71-3.7,145.337158-17.906938,216.537158-17.906938c71.1,0,144.549418,12.395285,215.649418,28.695285c71.2,16.4,149.866742,43.560381,220.866742,38.260381s153.981349-23.236565,225.181349-48.536565c71.1-25.3,120.553838-64.341935,191.653838-53.441935c71.2,10.8,150.625362,63.112792,186.125362,86.612792l23.976988,21.586581v-169.659135L1884.5,657.5C1849,636,1778,593,1706.8,587.7c-71.1-5.4-142.5,27-213.6,55.8-71.2,28.8-142.2,54.2-213.2,63.2s-142,1.6-213.2-23.7c-71.1-25.3-142.5-68.7-213.6-84.8C782,582,711,593,640,605.7c-71,12.6-142,27-213.2,18-71.1-9-142.5-41.4-213.6-61.2C142,542.7,71,535.3,35.5,531.7L-4.325983,528Z" transform="translate(4.325983 5.577174)" fill="#ee52a7"/><path id="e1UhBfJ06MT5" d="M4.492668,854L35.5,850.5C71,847,142,840,213.2,849c71.1,9,142.5,34,213.6,55.5C498,926,569,944,640,938.7c71-5.4,142-34,213.2-41.2c71.1-7.2,142.5,7.2,213.6,14.3C1138,919,1209,919,1280,913.7c71-5.4,142-16,213.2-28.7c71.1-12.7,142.5-27.3,213.6-18.3c71.2,9,142.2,41.6,177.7,58l39.992668,16.3v-121l-31.716133-25.426135c-35.5-23.5-106.102325-74.685049-177.302325-85.485049C1644.37421,698.188816,1564.3,729.7,1493.2,755C1422,780.3,1351,805.7,1280,811s-142-9.3-213.2-25.7C995.7,769,924.3,751,853.2,751C782,751,711,769,640,772.7c-71,3.6-142-7-213.2-19.5-71.1-12.5-142.5-26.9-213.6-35.9-71.2-9-142.2-12.6-177.7-14.5L4.492668,701Z" transform="translate(-4.492668 3.142007)" fill="#c800c3"/><path id="e1UhBfJ06MT6" d="M13.229634,1081.941511c9.075401.582453,22.270366,0,22.270366,0c35.5,0,106.5,0,177.7,0c71.1,0,142.5,0,213.6,0c71.2,0,142.2,0,213.2,0s142,0,213.2,0c71.1,0,142.5,0,213.6,0c71.2,0,140.459912,0,211.459912,0s141.41967,0,212.61967,0c71.1,0,144.820418,0,215.920418,0c71.2,0,142.2,0,177.7,0h48.729634v-147.679402l-49.464852-22.744208C1848.264782,895.117901,1778,873.7,1706.8,864.7c-71.1-9-142.5,5.6-213.6,18.3-71.2,12.7-142.2,23.3-213.2,28.7-71,5.3-142,5.3-213.2-1.9-71.1-7.1-142.5-21.5-213.6-14.3C782,902.7,711,931.3,640,936.7C569,942,498,924,426.8,902.5C355.7,881,284.3,856,213.2,847C142,838,71,845,35.5,848.5L13.229634,853Z" transform="translate(-13.229634-1.941511)" fill="#5f00ee"/><path d="" fill="none" stroke="#3f5787" stroke-width="3.84"/></svg>